<svg width="28" height="26" viewBox="0 0 28 26" fill="none" xmlns="http://www.w3.org/2000/svg">
<path d="M24.3762 0.646973H21.9056V3.11756C21.9056 3.61168 21.4938 3.94109 21.0821 3.94109C20.6703 3.94109 20.2585 3.61168 20.2585 3.11756V0.646973H7.08207V3.11756C7.08207 3.61168 6.6703 3.94109 6.25854 3.94109C5.84677 3.94109 5.43501 3.61168 5.43501 3.11756V0.646973H2.96442C1.72912 0.646973 0.823242 1.71756 0.823242 3.11756V6.08227H27.1762V3.11756C27.1762 1.71756 25.6938 0.646973 24.3762 0.646973ZM0.823242 7.81168V22.8823C0.823242 24.3646 1.72912 25.3529 3.04677 25.3529H24.4585C25.7762 25.3529 27.2585 24.2823 27.2585 22.8823V7.81168H0.823242ZM8.15265 21.647H6.17618C5.84677 21.647 5.51736 21.3999 5.51736 20.9882V18.9293C5.51736 18.5999 5.76442 18.2705 6.17618 18.2705H8.23501C8.56442 18.2705 8.89383 18.5176 8.89383 18.9293V20.9882C8.81148 21.3999 8.56442 21.647 8.15265 21.647ZM8.15265 14.2352H6.17618C5.84677 14.2352 5.51736 13.9882 5.51736 13.5764V11.5176C5.51736 11.1881 5.76442 10.8587 6.17618 10.8587H8.23501C8.56442 10.8587 8.89383 11.1058 8.89383 11.5176V13.5764C8.81148 13.9882 8.56442 14.2352 8.15265 14.2352ZM14.7409 21.647H12.6821C12.3527 21.647 12.0232 21.3999 12.0232 20.9882V18.9293C12.0232 18.5999 12.2703 18.2705 12.6821 18.2705H14.7409C15.0703 18.2705 15.3997 18.5176 15.3997 18.9293V20.9882C15.3997 21.3999 15.1527 21.647 14.7409 21.647ZM14.7409 14.2352H12.6821C12.3527 14.2352 12.0232 13.9882 12.0232 13.5764V11.5176C12.0232 11.1881 12.2703 10.8587 12.6821 10.8587H14.7409C15.0703 10.8587 15.3997 11.1058 15.3997 11.5176V13.5764C15.3997 13.9882 15.1527 14.2352 14.7409 14.2352ZM21.3291 21.647H19.2703C18.9409 21.647 18.6115 21.3999 18.6115 20.9882V18.9293C18.6115 18.5999 18.8585 18.2705 19.2703 18.2705H21.3291C21.6585 18.2705 21.9879 18.5176 21.9879 18.9293V20.9882C21.9879 21.3999 21.7409 21.647 21.3291 21.647ZM21.3291 14.2352H19.2703C18.9409 14.2352 18.6115 13.9882 18.6115 13.5764V11.5176C18.6115 11.1881 18.8585 10.8587 19.2703 10.8587H21.3291C21.6585 10.8587 21.9879 11.1058 21.9879 11.5176V13.5764C21.9879 13.9882 21.7409 14.2352 21.3291 14.2352Z" fill="#8675FF"/>
</svg>
