<svg width="16" height="16" viewBox="0 0 16 16" fill="none" xmlns="http://www.w3.org/2000/svg">
<g clip-path="url(#clip0_468_442)">
<path d="M8 0C3.58187 0 0 3.58063 0 8C0 12.4194 3.58187 16 8 16C12.4181 16 16 12.4172 16 8C16 3.58281 12.4181 0 8 0Z" fill="#94ADF9"/>
<path d="M7.42939e-06 8C-0.00179848 9.32233 0.325654 10.6243 0.95282 11.7884C1.75184 12.023 2.58038 12.1418 3.41313 12.1412C8.22251 12.1412 12.1213 8.2425 12.1213 3.43312C12.122 2.58717 11.9994 1.74562 11.7575 0.935C10.601 0.318975 9.31035 -0.00218249 8.00001 -3.98451e-07C3.58188 -3.98451e-07 7.42939e-06 3.58063 7.42939e-06 8Z" fill="#91B8F8"/>
<path d="M12.5628 6.67438L7.75441 11.7241C7.62337 11.8615 7.46593 11.9711 7.29152 12.0463C7.11711 12.1215 6.92932 12.1607 6.73941 12.1616H6.73316C6.5443 12.1616 6.35735 12.1237 6.18342 12.0501C6.00949 11.9765 5.85212 11.8687 5.72066 11.7331L3.16909 9.10501C3.03726 8.97267 2.93302 8.81547 2.86242 8.64253C2.79183 8.46958 2.75629 8.28434 2.75786 8.09755C2.75944 7.91075 2.79809 7.72614 2.87159 7.5544C2.94509 7.38267 3.05196 7.22725 3.18601 7.09716C3.32006 6.96706 3.47861 6.86488 3.65246 6.79656C3.82631 6.72823 4.01201 6.69511 4.19876 6.69913C4.38552 6.70315 4.56961 6.74421 4.74037 6.81995C4.91112 6.89569 5.06514 7.00458 5.19347 7.14032L6.72316 8.71594L10.5197 4.72907C10.6469 4.5927 10.7999 4.48289 10.9697 4.40601C11.1396 4.32913 11.3231 4.28669 11.5095 4.28116C11.6959 4.27562 11.8815 4.3071 12.0556 4.37376C12.2298 4.44043 12.389 4.54096 12.524 4.66954C12.6591 4.79813 12.7673 4.95221 12.8424 5.12289C12.9176 5.29356 12.9581 5.47743 12.9617 5.66387C12.9653 5.85031 12.9319 6.03561 12.8635 6.20906C12.795 6.38251 12.6928 6.54067 12.5628 6.67438Z" fill="white"/>
</g>
<defs>
<clipPath id="clip0_468_442">
<rect width="16" height="16" fill="white"/>
</clipPath>
</defs>
</svg>
