<svg width="28" height="16" viewBox="0 0 28 16" fill="none" xmlns="http://www.w3.org/2000/svg">
<path d="M25.768 3.84219V2.80399C25.768 1.61268 24.8023 0.637695 23.6116 0.637695H21.9003C20.7096 0.637695 19.7439 1.61268 19.7439 2.80399V5.71283H8.25546V2.80399C8.25546 1.61268 7.28977 0.637695 6.09908 0.637695H4.38775C3.19706 0.637695 2.23137 1.61268 2.23137 2.80399V3.84219C1.00474 3.84219 0 4.84445 0 6.08162V9.90719C0 11.1444 1.0599 12.1466 2.23137 12.1466V13.1842C2.23137 14.3755 3.19706 15.3617 4.38775 15.3617H6.09908C7.28977 15.3617 8.25546 14.3755 8.25546 13.1842V10.2859H19.7445V13.1842C19.7445 14.3755 20.7102 15.3617 21.9009 15.3617H23.6129C24.8029 15.3617 25.7692 14.3755 25.7692 13.1842V12.1466C26.9959 12.1466 28.0006 11.1431 28.0006 9.90719V6.08162C27.9988 4.84445 26.9389 3.84219 25.768 3.84219Z" fill="#1F1851"/>
</svg>
