<svg width="16" height="20" viewBox="0 0 16 20" fill="none" xmlns="http://www.w3.org/2000/svg">
<path d="M4.44444 9.09091H11.5556V6.36364C11.5556 5.35985 11.2083 4.50284 10.5139 3.79261C9.81944 3.08239 8.98148 2.72727 8 2.72727C7.01852 2.72727 6.18056 3.08239 5.48611 3.79261C4.79167 4.50284 4.44444 5.35985 4.44444 6.36364V9.09091ZM16 10.4545V18.6364C16 19.0152 15.8704 19.3371 15.6111 19.6023C15.3519 19.8674 15.037 20 14.6667 20H1.33333C0.962963 20 0.648148 19.8674 0.388889 19.6023C0.12963 19.3371 0 19.0152 0 18.6364V10.4545C0 10.0758 0.12963 9.75379 0.388889 9.48864C0.648148 9.22348 0.962963 9.09091 1.33333 9.09091H1.77778V6.36364C1.77778 4.62121 2.38889 3.125 3.61111 1.875C4.83333 0.625 6.2963 0 8 0C9.7037 0 11.1667 0.625 12.3889 1.875C13.6111 3.125 14.2222 4.62121 14.2222 6.36364V9.09091H14.6667C15.037 9.09091 15.3519 9.22348 15.6111 9.48864C15.8704 9.75379 16 10.0758 16 10.4545Z" fill="white"/>
</svg>
