<svg width="28" height="26" viewBox="0 0 28 26" fill="none" xmlns="http://www.w3.org/2000/svg">
<path d="M27.9903 12.82C27.9903 13.695 27.2611 14.3805 26.4347 14.3805H24.8792L24.9132 22.1631C24.9132 22.2992 24.9035 22.4256 24.8889 22.5568V23.3443C24.8889 24.4187 24.0188 25.2888 22.9444 25.2888H22.1667C22.1132 25.2888 22.0597 25.245 22.0063 25.2839C21.9382 25.245 21.8701 25.2888 21.8021 25.2888H19.0556C17.9813 25.2888 17.1111 24.4187 17.1111 23.3443V19.0666C17.1111 18.2062 16.416 17.511 15.5556 17.511H12.4444C11.584 17.511 10.8889 18.2062 10.8889 19.0666V23.3443C10.8889 24.4187 10.0188 25.2888 8.94444 25.2888H6.22708C6.15417 25.2888 6.08125 25.2839 6.00833 25.2791C5.95 25.2839 5.89167 25.2888 5.83333 25.2888H5.05556C3.98174 25.2888 3.11111 24.4187 3.11111 23.3443V17.8999C3.11111 17.8562 3.11257 17.8075 3.11549 17.7638V14.3805H1.55799C0.681528 14.3805 0 13.695 0 12.82C0 12.3825 0.146028 11.9937 0.486597 11.6534L12.95 0.789569C13.2903 0.448611 13.6792 0.399902 14.0194 0.399902C14.3597 0.399902 14.7486 0.497319 15.0451 0.740861L27.4556 11.6534C27.8444 11.9937 28.0438 12.3825 27.9903 12.82Z" fill="#1F1851"/>
</svg>
