<svg width="541" height="52" viewBox="0 0 541 52" fill="none" xmlns="http://www.w3.org/2000/svg">
<path d="M1.5 9H41.5" stroke="#27262B" stroke-width="2" stroke-linecap="round"/>
<path d="M1 46H41" stroke="#27262B" stroke-width="2" stroke-linecap="round"/>
<path d="M21.7071 12.2929C21.3166 11.9024 20.6834 11.9024 20.2929 12.2929L13.9289 18.6569C13.5384 19.0474 13.5384 19.6805 13.9289 20.0711C14.3195 20.4616 14.9526 20.4616 15.3431 20.0711L21 14.4142L26.6569 20.0711C27.0474 20.4616 27.6805 20.4616 28.0711 20.0711C28.4616 19.6805 28.4616 19.0474 28.0711 18.6569L21.7071 12.2929ZM20.2929 41.7071C20.6834 42.0976 21.3166 42.0976 21.7071 41.7071L28.0711 35.3431C28.4616 34.9526 28.4616 34.3195 28.0711 33.9289C27.6805 33.5384 27.0474 33.5384 26.6569 33.9289L21 39.5858L15.3431 33.9289C14.9526 33.5384 14.3195 33.5384 13.9289 33.9289C13.5384 34.3195 13.5384 34.9526 13.9289 35.3431L20.2929 41.7071ZM20 13L20 41L22 41L22 13L20 13Z" fill="#27262B"/>
<path d="M55.204 22V12.13H56.352L60.244 20.894H59.824L63.716 12.13H64.85V22H63.66V13.866H64.094L60.44 22H59.614L55.96 13.866H56.394V22H55.204ZM69.8106 22.126C69.1946 22.126 68.6533 21.9813 68.1866 21.692C67.7199 21.4027 67.3559 20.9827 67.0946 20.432C66.8333 19.8813 66.7026 19.228 66.7026 18.472C66.7026 17.716 66.8333 17.0673 67.0946 16.526C67.3559 15.9753 67.7199 15.5553 68.1866 15.266C68.6533 14.9767 69.1946 14.832 69.8106 14.832C70.4359 14.832 70.9773 14.9907 71.4346 15.308C71.9013 15.616 72.2093 16.0407 72.3586 16.582H72.1906L72.3446 14.958H73.5766C73.5486 15.238 73.5206 15.518 73.4926 15.798C73.4739 16.078 73.4646 16.3533 73.4646 16.624V22H72.1906V20.39H72.3446C72.1953 20.922 71.8873 21.3467 71.4206 21.664C70.9633 21.972 70.4266 22.126 69.8106 22.126ZM70.1046 21.118C70.7393 21.118 71.2479 20.894 71.6306 20.446C72.0133 19.998 72.2046 19.34 72.2046 18.472C72.2046 17.604 72.0133 16.9507 71.6306 16.512C71.2479 16.0733 70.7393 15.854 70.1046 15.854C69.4699 15.854 68.9566 16.0733 68.5646 16.512C68.1819 16.9507 67.9906 17.604 67.9906 18.472C67.9906 19.34 68.1819 19.998 68.5646 20.446C68.9473 20.894 69.4606 21.118 70.1046 21.118ZM75.5992 22V11.696H76.8732V18.066H76.9012L80.0792 14.958H81.6612L77.8812 18.654L77.8952 18.052L81.9972 22H80.3732L76.9012 18.724H76.8732V22H75.5992ZM85.9692 22.126C84.8492 22.126 83.9626 21.804 83.3092 21.16C82.6652 20.516 82.3432 19.6293 82.3432 18.5C82.3432 17.7533 82.4832 17.1093 82.7632 16.568C83.0526 16.0173 83.4492 15.5927 83.9532 15.294C84.4572 14.986 85.0452 14.832 85.7172 14.832C86.3612 14.832 86.9072 14.972 87.3552 15.252C87.8032 15.5227 88.1439 15.91 88.3772 16.414C88.6106 16.918 88.7272 17.5153 88.7272 18.206V18.626H83.3372V17.87H87.8592L87.6212 18.052C87.6212 17.324 87.4579 16.7593 87.1312 16.358C86.8139 15.9567 86.3426 15.756 85.7172 15.756C85.0359 15.756 84.5086 15.994 84.1352 16.47C83.7619 16.9367 83.5752 17.576 83.5752 18.388V18.514C83.5752 19.3727 83.7852 20.0213 84.2052 20.46C84.6346 20.8987 85.2272 21.118 85.9832 21.118C86.4032 21.118 86.7952 21.0573 87.1592 20.936C87.5232 20.8147 87.8732 20.614 88.2092 20.334L88.6292 21.216C88.3119 21.5053 87.9152 21.7293 87.4392 21.888C86.9726 22.0467 86.4826 22.126 85.9692 22.126ZM96.4635 22.126C95.8942 22.126 95.3622 22.0513 94.8675 21.902C94.3822 21.7527 93.9809 21.538 93.6635 21.258L94.0695 20.376C94.4149 20.6373 94.7929 20.838 95.2035 20.978C95.6235 21.1087 96.0529 21.174 96.4915 21.174C97.0235 21.174 97.4249 21.076 97.6955 20.88C97.9755 20.684 98.1155 20.4227 98.1155 20.096C98.1155 19.8347 98.0269 19.6247 97.8495 19.466C97.6722 19.3073 97.3922 19.1907 97.0095 19.116L95.6795 18.85C95.0822 18.71 94.6295 18.486 94.3215 18.178C94.0229 17.8607 93.8735 17.4547 93.8735 16.96C93.8735 16.5493 93.9855 16.1853 94.2095 15.868C94.4335 15.5413 94.7509 15.2893 95.1615 15.112C95.5815 14.9253 96.0715 14.832 96.6315 14.832C97.1449 14.832 97.6209 14.9067 98.0595 15.056C98.5075 15.2053 98.8762 15.4247 99.1655 15.714L98.7455 16.568C98.4562 16.316 98.1295 16.1247 97.7655 15.994C97.4109 15.854 97.0469 15.784 96.6735 15.784C96.1322 15.784 95.7309 15.8913 95.4695 16.106C95.2082 16.3113 95.0775 16.582 95.0775 16.918C95.0775 17.17 95.1569 17.38 95.3155 17.548C95.4742 17.7067 95.7309 17.828 96.0855 17.912L97.4155 18.178C98.0409 18.3087 98.5122 18.5233 98.8295 18.822C99.1469 19.1207 99.3055 19.5173 99.3055 20.012C99.3055 20.4507 99.1842 20.8287 98.9415 21.146C98.7082 21.4633 98.3769 21.706 97.9475 21.874C97.5275 22.042 97.0329 22.126 96.4635 22.126ZM103.549 22.126C102.699 22.126 102.06 21.8973 101.631 21.44C101.211 20.9827 101.001 20.278 101.001 19.326V14.958H102.275V19.298C102.275 19.914 102.401 20.3667 102.653 20.656C102.905 20.9453 103.297 21.09 103.829 21.09C104.407 21.09 104.874 20.8987 105.229 20.516C105.593 20.124 105.775 19.606 105.775 18.962V14.958H107.049V22H105.817V20.446H105.999C105.803 20.978 105.49 21.3933 105.061 21.692C104.631 21.9813 104.127 22.126 103.549 22.126ZM109.177 22V16.68C109.177 16.4 109.168 16.1153 109.149 15.826C109.14 15.5273 109.116 15.238 109.079 14.958H110.311L110.465 16.722L110.255 16.736C110.348 16.3067 110.507 15.952 110.731 15.672C110.964 15.3827 111.24 15.1727 111.557 15.042C111.884 14.902 112.22 14.832 112.565 14.832C112.714 14.832 112.84 14.8367 112.943 14.846C113.046 14.8553 113.148 14.8787 113.251 14.916L113.223 16.05C113.083 15.994 112.952 15.9613 112.831 15.952C112.719 15.9333 112.579 15.924 112.411 15.924C112 15.924 111.646 16.0173 111.347 16.204C111.058 16.3907 110.834 16.638 110.675 16.946C110.526 17.254 110.451 17.5853 110.451 17.94V22H109.177ZM117.483 22.126C116.363 22.126 115.476 21.804 114.823 21.16C114.179 20.516 113.857 19.6293 113.857 18.5C113.857 17.7533 113.997 17.1093 114.277 16.568C114.566 16.0173 114.963 15.5927 115.467 15.294C115.971 14.986 116.559 14.832 117.231 14.832C117.875 14.832 118.421 14.972 118.869 15.252C119.317 15.5227 119.658 15.91 119.891 16.414C120.124 16.918 120.241 17.5153 120.241 18.206V18.626H114.851V17.87H119.373L119.135 18.052C119.135 17.324 118.972 16.7593 118.645 16.358C118.328 15.9567 117.856 15.756 117.231 15.756C116.55 15.756 116.022 15.994 115.649 16.47C115.276 16.9367 115.089 17.576 115.089 18.388V18.514C115.089 19.3727 115.299 20.0213 115.719 20.46C116.148 20.8987 116.741 21.118 117.497 21.118C117.917 21.118 118.309 21.0573 118.673 20.936C119.037 20.8147 119.387 20.614 119.723 20.334L120.143 21.216C119.826 21.5053 119.429 21.7293 118.953 21.888C118.486 22.0467 117.996 22.126 117.483 22.126ZM125.359 25.178L125.065 24.142C125.504 24.0393 125.868 23.918 126.157 23.778C126.447 23.6473 126.689 23.4747 126.885 23.26C127.081 23.0453 127.254 22.7747 127.403 22.448L127.753 21.608L127.725 22.14L124.659 14.958H126.031L128.481 20.992H128.117L130.567 14.958H131.883L128.649 22.546C128.453 23.0033 128.239 23.386 128.005 23.694C127.781 24.002 127.534 24.254 127.263 24.45C127.002 24.646 126.713 24.8 126.395 24.912C126.078 25.024 125.733 25.1127 125.359 25.178ZM135.934 22.126C135.244 22.126 134.646 21.9813 134.142 21.692C133.638 21.3933 133.246 20.9733 132.966 20.432C132.686 19.8813 132.546 19.228 132.546 18.472C132.546 17.7253 132.686 17.0813 132.966 16.54C133.246 15.9893 133.638 15.5693 134.142 15.28C134.646 14.9813 135.244 14.832 135.934 14.832C136.625 14.832 137.222 14.9813 137.726 15.28C138.24 15.5693 138.632 15.9893 138.902 16.54C139.182 17.0813 139.322 17.7253 139.322 18.472C139.322 19.228 139.182 19.8813 138.902 20.432C138.632 20.9733 138.24 21.3933 137.726 21.692C137.222 21.9813 136.625 22.126 135.934 22.126ZM135.934 21.118C136.569 21.118 137.078 20.894 137.46 20.446C137.843 19.998 138.034 19.34 138.034 18.472C138.034 17.604 137.843 16.9507 137.46 16.512C137.078 16.0733 136.569 15.854 135.934 15.854C135.29 15.854 134.777 16.0733 134.394 16.512C134.021 16.9507 133.834 17.604 133.834 18.472C133.834 19.34 134.021 19.998 134.394 20.446C134.777 20.894 135.29 21.118 135.934 21.118ZM143.539 22.126C142.689 22.126 142.05 21.8973 141.621 21.44C141.201 20.9827 140.991 20.278 140.991 19.326V14.958H142.265V19.298C142.265 19.914 142.391 20.3667 142.643 20.656C142.895 20.9453 143.287 21.09 143.819 21.09C144.397 21.09 144.864 20.8987 145.219 20.516C145.583 20.124 145.765 19.606 145.765 18.962V14.958H147.039V22H145.807V20.446H145.989C145.793 20.978 145.48 21.3933 145.051 21.692C144.621 21.9813 144.117 22.126 143.539 22.126ZM152.873 22V11.696H154.147V16.484H153.965C154.17 15.9427 154.501 15.532 154.959 15.252C155.416 14.972 155.943 14.832 156.541 14.832C157.39 14.832 158.015 15.0607 158.417 15.518C158.827 15.9753 159.033 16.666 159.033 17.59V22H157.759V17.66C157.759 17.0347 157.637 16.582 157.395 16.302C157.152 16.0127 156.755 15.868 156.205 15.868C155.589 15.868 155.089 16.0593 154.707 16.442C154.333 16.8247 154.147 17.3333 154.147 17.968V22H152.873ZM163.805 22.126C163.189 22.126 162.647 21.9813 162.181 21.692C161.714 21.4027 161.35 20.9827 161.089 20.432C160.827 19.8813 160.697 19.228 160.697 18.472C160.697 17.716 160.827 17.0673 161.089 16.526C161.35 15.9753 161.714 15.5553 162.181 15.266C162.647 14.9767 163.189 14.832 163.805 14.832C164.43 14.832 164.971 14.9907 165.429 15.308C165.895 15.616 166.203 16.0407 166.353 16.582H166.185L166.339 14.958H167.571C167.543 15.238 167.515 15.518 167.487 15.798C167.468 16.078 167.459 16.3533 167.459 16.624V22H166.185V20.39H166.339C166.189 20.922 165.881 21.3467 165.415 21.664C164.957 21.972 164.421 22.126 163.805 22.126ZM164.099 21.118C164.733 21.118 165.242 20.894 165.625 20.446C166.007 19.998 166.199 19.34 166.199 18.472C166.199 17.604 166.007 16.9507 165.625 16.512C165.242 16.0733 164.733 15.854 164.099 15.854C163.464 15.854 162.951 16.0733 162.559 16.512C162.176 16.9507 161.985 17.604 161.985 18.472C161.985 19.34 162.176 19.998 162.559 20.446C162.941 20.894 163.455 21.118 164.099 21.118ZM171.597 22L168.587 14.958H169.959L172.409 21.006H172.017L174.509 14.958H175.811L172.787 22H171.597ZM180.1 22.126C178.98 22.126 178.093 21.804 177.44 21.16C176.796 20.516 176.474 19.6293 176.474 18.5C176.474 17.7533 176.614 17.1093 176.894 16.568C177.183 16.0173 177.58 15.5927 178.084 15.294C178.588 14.986 179.176 14.832 179.848 14.832C180.492 14.832 181.038 14.972 181.486 15.252C181.934 15.5227 182.275 15.91 182.508 16.414C182.741 16.918 182.858 17.5153 182.858 18.206V18.626H177.468V17.87H181.99L181.752 18.052C181.752 17.324 181.589 16.7593 181.262 16.358C180.945 15.9567 180.473 15.756 179.848 15.756C179.167 15.756 178.639 15.994 178.266 16.47C177.893 16.9367 177.706 17.576 177.706 18.388V18.514C177.706 19.3727 177.916 20.0213 178.336 20.46C178.765 20.8987 179.358 21.118 180.114 21.118C180.534 21.118 180.926 21.0573 181.29 20.936C181.654 20.8147 182.004 20.614 182.34 20.334L182.76 21.216C182.443 21.5053 182.046 21.7293 181.57 21.888C181.103 22.0467 180.613 22.126 180.1 22.126Z" fill="#27262B"/>
<path d="M57.682 42.14C57.066 42.14 56.5247 41.9953 56.058 41.706C55.5913 41.4073 55.2273 40.9827 54.966 40.432C54.7047 39.8813 54.574 39.2233 54.574 38.458C54.574 37.6927 54.7047 37.0393 54.966 36.498C55.2273 35.9473 55.5913 35.5273 56.058 35.238C56.5247 34.9393 57.066 34.79 57.682 34.79C58.2793 34.79 58.802 34.9393 59.25 35.238C59.7073 35.5273 60.0107 35.9193 60.16 36.414H60.006L60.16 34.93H61.84C61.812 35.2193 61.784 35.5133 61.756 35.812C61.7373 36.1107 61.728 36.4047 61.728 36.694V42H59.992L59.978 40.544H60.146C59.9967 41.0293 59.6933 41.4167 59.236 41.706C58.7787 41.9953 58.2607 42.14 57.682 42.14ZM58.172 40.796C58.7227 40.796 59.166 40.6047 59.502 40.222C59.838 39.83 60.006 39.242 60.006 38.458C60.006 37.674 59.838 37.0907 59.502 36.708C59.166 36.3253 58.7227 36.134 58.172 36.134C57.6213 36.134 57.178 36.3253 56.842 36.708C56.506 37.0907 56.338 37.674 56.338 38.458C56.338 39.242 56.5013 39.83 56.828 40.222C57.164 40.6047 57.612 40.796 58.172 40.796ZM67.9514 42V36.246H66.5934V34.93H68.4414L67.9514 35.378V34.3C67.9514 33.4227 68.1754 32.76 68.6234 32.312C69.0808 31.864 69.7481 31.64 70.6254 31.64C70.8308 31.64 71.0454 31.654 71.2694 31.682C71.5028 31.71 71.7034 31.7613 71.8714 31.836V33.208C71.7501 33.1613 71.6054 33.124 71.4374 33.096C71.2694 33.068 71.1061 33.054 70.9474 33.054C70.7048 33.054 70.4854 33.1007 70.2894 33.194C70.1028 33.2873 69.9534 33.432 69.8414 33.628C69.7388 33.8147 69.6874 34.0667 69.6874 34.384V35.238L69.4354 34.93H71.5494V36.246H69.7014V42H67.9514ZM75.868 42.14C74.6827 42.14 73.754 41.8133 73.082 41.16C72.41 40.5067 72.074 39.6107 72.074 38.472C72.074 37.7347 72.2187 37.0907 72.508 36.54C72.7973 35.9893 73.1987 35.56 73.712 35.252C74.2347 34.944 74.8413 34.79 75.532 34.79C76.2133 34.79 76.7827 34.9347 77.24 35.224C77.6973 35.5133 78.0427 35.9193 78.276 36.442C78.5187 36.9647 78.64 37.576 78.64 38.276V38.738H73.488V37.814H77.394L77.156 38.01C77.156 37.3567 77.016 36.8573 76.736 36.512C76.4653 36.1667 76.0687 35.994 75.546 35.994C74.9673 35.994 74.5193 36.1993 74.202 36.61C73.894 37.0207 73.74 37.5947 73.74 38.332V38.514C73.74 39.2793 73.9267 39.8533 74.3 40.236C74.6827 40.6093 75.2193 40.796 75.91 40.796C76.3113 40.796 76.6847 40.7447 77.03 40.642C77.3847 40.53 77.7207 40.3527 78.038 40.11L78.556 41.286C78.22 41.5567 77.8187 41.7667 77.352 41.916C76.8853 42.0653 76.3907 42.14 75.868 42.14ZM81.9725 42L79.2145 34.93H81.0205L83.0085 40.432H82.6445L84.6605 34.93H85.9065L87.9085 40.432H87.5865L89.5605 34.93H91.2685L88.5105 42H86.9705L84.8565 36.372H85.5985L83.5265 42H81.9725ZM96.6897 42V36.246H95.3317V34.93H97.1797L96.6897 35.378V34.3C96.6897 33.4227 96.9137 32.76 97.3617 32.312C97.8191 31.864 98.4864 31.64 99.3637 31.64C99.5691 31.64 99.7837 31.654 100.008 31.682C100.241 31.71 100.442 31.7613 100.61 31.836V33.208C100.488 33.1613 100.344 33.124 100.176 33.096C100.008 33.068 99.8444 33.054 99.6857 33.054C99.4431 33.054 99.2237 33.1007 99.0277 33.194C98.8411 33.2873 98.6917 33.432 98.5797 33.628C98.4771 33.8147 98.4257 34.0667 98.4257 34.384V35.238L98.1737 34.93H100.288V36.246H98.4397V42H96.6897ZM104.606 42.14C103.421 42.14 102.492 41.8133 101.82 41.16C101.148 40.5067 100.812 39.6107 100.812 38.472C100.812 37.7347 100.957 37.0907 101.246 36.54C101.536 35.9893 101.937 35.56 102.45 35.252C102.973 34.944 103.58 34.79 104.27 34.79C104.952 34.79 105.521 34.9347 105.978 35.224C106.436 35.5133 106.781 35.9193 107.014 36.442C107.257 36.9647 107.378 37.576 107.378 38.276V38.738H102.226V37.814H106.132L105.894 38.01C105.894 37.3567 105.754 36.8573 105.474 36.512C105.204 36.1667 104.807 35.994 104.284 35.994C103.706 35.994 103.258 36.1993 102.94 36.61C102.632 37.0207 102.478 37.5947 102.478 38.332V38.514C102.478 39.2793 102.665 39.8533 103.038 40.236C103.421 40.6093 103.958 40.796 104.648 40.796C105.05 40.796 105.423 40.7447 105.768 40.642C106.123 40.53 106.459 40.3527 106.776 40.11L107.294 41.286C106.958 41.5567 106.557 41.7667 106.09 41.916C105.624 42.0653 105.129 42.14 104.606 42.14ZM112.276 42.14C111.091 42.14 110.162 41.8133 109.49 41.16C108.818 40.5067 108.482 39.6107 108.482 38.472C108.482 37.7347 108.627 37.0907 108.916 36.54C109.206 35.9893 109.607 35.56 110.12 35.252C110.643 34.944 111.25 34.79 111.94 34.79C112.622 34.79 113.191 34.9347 113.648 35.224C114.106 35.5133 114.451 35.9193 114.684 36.442C114.927 36.9647 115.048 37.576 115.048 38.276V38.738H109.896V37.814H113.802L113.564 38.01C113.564 37.3567 113.424 36.8573 113.144 36.512C112.874 36.1667 112.477 35.994 111.954 35.994C111.376 35.994 110.928 36.1993 110.61 36.61C110.302 37.0207 110.148 37.5947 110.148 38.332V38.514C110.148 39.2793 110.335 39.8533 110.708 40.236C111.091 40.6093 111.628 40.796 112.318 40.796C112.72 40.796 113.093 40.7447 113.438 40.642C113.793 40.53 114.129 40.3527 114.446 40.11L114.964 41.286C114.628 41.5567 114.227 41.7667 113.76 41.916C113.294 42.0653 112.799 42.14 112.276 42.14ZM119.527 42.14C118.687 42.14 118.052 41.9207 117.623 41.482C117.193 41.0433 116.979 40.3853 116.979 39.508V36.246H115.621V34.93H116.979V33.124L118.729 32.676V34.93H120.619V36.246H118.729V39.396C118.729 39.8813 118.822 40.222 119.009 40.418C119.195 40.614 119.452 40.712 119.779 40.712C119.956 40.712 120.105 40.698 120.227 40.67C120.357 40.642 120.483 40.6047 120.605 40.558V41.944C120.446 42.0093 120.269 42.056 120.073 42.084C119.886 42.1213 119.704 42.14 119.527 42.14ZM128.841 42.14C128.113 42.14 127.483 41.9907 126.951 41.692C126.419 41.3933 126.004 40.9687 125.705 40.418C125.416 39.8673 125.271 39.214 125.271 38.458C125.271 37.702 125.416 37.0533 125.705 36.512C126.004 35.9613 126.419 35.5367 126.951 35.238C127.483 34.9393 128.113 34.79 128.841 34.79C129.569 34.79 130.199 34.9393 130.731 35.238C131.273 35.5367 131.688 35.9613 131.977 36.512C132.276 37.0533 132.425 37.702 132.425 38.458C132.425 39.214 132.276 39.8673 131.977 40.418C131.688 40.9687 131.273 41.3933 130.731 41.692C130.199 41.9907 129.569 42.14 128.841 42.14ZM128.841 40.796C129.392 40.796 129.831 40.6047 130.157 40.222C130.484 39.83 130.647 39.242 130.647 38.458C130.647 37.674 130.484 37.0907 130.157 36.708C129.831 36.3253 129.392 36.134 128.841 36.134C128.291 36.134 127.852 36.3253 127.525 36.708C127.199 37.0907 127.035 37.674 127.035 38.458C127.035 39.242 127.199 39.83 127.525 40.222C127.852 40.6047 128.291 40.796 128.841 40.796ZM134.342 42V36.246H132.984V34.93H134.832L134.342 35.378V34.3C134.342 33.4227 134.566 32.76 135.014 32.312C135.471 31.864 136.139 31.64 137.016 31.64C137.221 31.64 137.436 31.654 137.66 31.682C137.893 31.71 138.094 31.7613 138.262 31.836V33.208C138.141 33.1613 137.996 33.124 137.828 33.096C137.66 33.068 137.497 33.054 137.338 33.054C137.095 33.054 136.876 33.1007 136.68 33.194C136.493 33.2873 136.344 33.432 136.232 33.628C136.129 33.8147 136.078 34.0667 136.078 34.384V35.238L135.826 34.93H137.94V36.246H136.092V42H134.342ZM145.382 42.14C144.775 42.14 144.215 42.07 143.702 41.93C143.198 41.7807 142.773 41.5753 142.428 41.314L142.918 40.138C143.273 40.3807 143.665 40.5673 144.094 40.698C144.523 40.8287 144.957 40.894 145.396 40.894C145.863 40.894 146.208 40.8147 146.432 40.656C146.665 40.4973 146.782 40.2827 146.782 40.012C146.782 39.7973 146.707 39.6293 146.558 39.508C146.418 39.3773 146.189 39.2793 145.872 39.214L144.472 38.948C143.875 38.8173 143.417 38.5933 143.1 38.276C142.792 37.9587 142.638 37.5433 142.638 37.03C142.638 36.5913 142.755 36.204 142.988 35.868C143.231 35.532 143.571 35.2707 144.01 35.084C144.458 34.888 144.981 34.79 145.578 34.79C146.101 34.79 146.591 34.86 147.048 35C147.515 35.14 147.907 35.35 148.224 35.63L147.72 36.764C147.431 36.5307 147.099 36.3487 146.726 36.218C146.353 36.0873 145.989 36.022 145.634 36.022C145.149 36.022 144.794 36.1107 144.57 36.288C144.346 36.456 144.234 36.6753 144.234 36.946C144.234 37.1513 144.299 37.324 144.43 37.464C144.57 37.5947 144.785 37.6927 145.074 37.758L146.474 38.024C147.099 38.1453 147.571 38.36 147.888 38.668C148.215 38.9667 148.378 39.3773 148.378 39.9C148.378 40.3667 148.252 40.768 148 41.104C147.748 41.44 147.398 41.6967 146.95 41.874C146.502 42.0513 145.979 42.14 145.382 42.14ZM149.876 45.024V36.694C149.876 36.4047 149.866 36.1107 149.848 35.812C149.829 35.5133 149.801 35.2193 149.764 34.93H151.458L151.612 36.414H151.458C151.598 35.9193 151.892 35.5273 152.34 35.238C152.797 34.9393 153.324 34.79 153.922 34.79C154.547 34.79 155.093 34.9393 155.56 35.238C156.026 35.5273 156.39 35.9473 156.652 36.498C156.913 37.0393 157.044 37.6927 157.044 38.458C157.044 39.2233 156.913 39.8813 156.652 40.432C156.39 40.9827 156.026 41.4073 155.56 41.706C155.093 41.9953 154.547 42.14 153.922 42.14C153.334 42.14 152.816 41.9953 152.368 41.706C151.92 41.4167 151.621 41.0293 151.472 40.544H151.626V45.024H149.876ZM153.432 40.796C153.992 40.796 154.44 40.6047 154.776 40.222C155.112 39.83 155.28 39.242 155.28 38.458C155.28 37.674 155.112 37.0907 154.776 36.708C154.44 36.3253 153.992 36.134 153.432 36.134C152.881 36.134 152.438 36.3253 152.102 36.708C151.766 37.0907 151.598 37.674 151.598 38.458C151.598 39.242 151.766 39.83 152.102 40.222C152.438 40.6047 152.881 40.796 153.432 40.796ZM161.287 42.14C160.671 42.14 160.13 41.9953 159.663 41.706C159.197 41.4073 158.833 40.9827 158.571 40.432C158.31 39.8813 158.179 39.2233 158.179 38.458C158.179 37.6927 158.31 37.0393 158.571 36.498C158.833 35.9473 159.197 35.5273 159.663 35.238C160.13 34.9393 160.671 34.79 161.287 34.79C161.885 34.79 162.407 34.9393 162.855 35.238C163.313 35.5273 163.616 35.9193 163.765 36.414H163.611L163.765 34.93H165.445C165.417 35.2193 165.389 35.5133 165.361 35.812C165.343 36.1107 165.333 36.4047 165.333 36.694V42H163.597L163.583 40.544H163.751C163.602 41.0293 163.299 41.4167 162.841 41.706C162.384 41.9953 161.866 42.14 161.287 42.14ZM161.777 40.796C162.328 40.796 162.771 40.6047 163.107 40.222C163.443 39.83 163.611 39.242 163.611 38.458C163.611 37.674 163.443 37.0907 163.107 36.708C162.771 36.3253 162.328 36.134 161.777 36.134C161.227 36.134 160.783 36.3253 160.447 36.708C160.111 37.0907 159.943 37.674 159.943 38.458C159.943 39.242 160.107 39.83 160.433 40.222C160.769 40.6047 161.217 40.796 161.777 40.796ZM170.487 42.14C169.759 42.14 169.12 41.9907 168.569 41.692C168.028 41.3933 167.608 40.9687 167.309 40.418C167.01 39.858 166.861 39.1953 166.861 38.43C166.861 37.6647 167.01 37.0113 167.309 36.47C167.617 35.9287 168.042 35.5133 168.583 35.224C169.124 34.9347 169.759 34.79 170.487 34.79C170.954 34.79 171.406 34.8647 171.845 35.014C172.293 35.154 172.657 35.3593 172.937 35.63L172.405 36.848C172.153 36.6147 171.868 36.442 171.551 36.33C171.243 36.2087 170.94 36.148 170.641 36.148C170.016 36.148 169.526 36.344 169.171 36.736C168.826 37.128 168.653 37.6973 168.653 38.444C168.653 39.1907 168.826 39.7647 169.171 40.166C169.526 40.5673 170.016 40.768 170.641 40.768C170.93 40.768 171.229 40.712 171.537 40.6C171.854 40.488 172.144 40.3153 172.405 40.082L172.937 41.286C172.648 41.5567 172.279 41.7667 171.831 41.916C171.392 42.0653 170.944 42.14 170.487 42.14ZM177.573 42.14C176.388 42.14 175.459 41.8133 174.787 41.16C174.115 40.5067 173.779 39.6107 173.779 38.472C173.779 37.7347 173.924 37.0907 174.213 36.54C174.502 35.9893 174.904 35.56 175.417 35.252C175.94 34.944 176.546 34.79 177.237 34.79C177.918 34.79 178.488 34.9347 178.945 35.224C179.402 35.5133 179.748 35.9193 179.981 36.442C180.224 36.9647 180.345 37.576 180.345 38.276V38.738H175.193V37.814H179.099L178.861 38.01C178.861 37.3567 178.721 36.8573 178.441 36.512C178.17 36.1667 177.774 35.994 177.251 35.994C176.672 35.994 176.224 36.1993 175.907 36.61C175.599 37.0207 175.445 37.5947 175.445 38.332V38.514C175.445 39.2793 175.632 39.8533 176.005 40.236C176.388 40.6093 176.924 40.796 177.615 40.796C178.016 40.796 178.39 40.7447 178.735 40.642C179.09 40.53 179.426 40.3527 179.743 40.11L180.261 41.286C179.925 41.5567 179.524 41.7667 179.057 41.916C178.59 42.0653 178.096 42.14 177.573 42.14Z" fill="#27262B"/>
<g clip-path="url(#clip0_325_325)">
<path d="M334.223 15.7699C333.93 15.5962 333.568 15.5894 333.268 15.7526L322.819 21.4582V18.0347C322.816 15.3715 320.658 13.2134 317.995 13.2104H293.978C291.315 13.2134 289.157 15.3715 289.154 18.0347V37.0835C289.157 39.7467 291.315 41.9049 293.978 41.9079H317.995C320.658 41.9049 322.816 39.7467 322.819 37.0835V33.7223L333.269 39.4279C333.568 39.5911 333.93 39.5847 334.223 39.4109C334.517 39.2368 334.696 38.9213 334.696 38.581V16.5995C334.696 16.2588 334.516 15.9437 334.223 15.7699ZM320.888 37.0839C320.887 38.682 319.592 39.9766 317.994 39.9785H293.978C292.38 39.9766 291.085 38.682 291.084 37.0839V18.0347C291.085 16.437 292.38 15.142 293.978 15.1401H317.995C319.592 15.142 320.887 16.437 320.889 18.0347L320.888 37.0839ZM332.766 36.955L322.819 31.5238V23.6567L332.766 18.2258V36.955Z" fill="#27262B"/>
</g>
<path d="M285.614 5.21065C285.178 4.87158 284.55 4.95011 284.211 5.38606C283.872 5.82201 283.95 6.45028 284.386 6.78935L285.614 5.21065ZM338.386 48.7894C338.822 49.1284 339.45 49.0499 339.789 48.6139C340.128 48.178 340.05 47.5497 339.614 47.2106L338.386 48.7894ZM284.386 6.78935L338.386 48.7894L339.614 47.2106L285.614 5.21065L284.386 6.78935Z" fill="#27262B"/>
<path d="M358.558 21.126C357.569 21.126 356.719 20.9207 356.01 20.51C355.31 20.0993 354.773 19.516 354.4 18.76C354.027 17.9947 353.84 17.094 353.84 16.058C353.84 15.022 354.027 14.126 354.4 13.37C354.773 12.614 355.31 12.0307 356.01 11.62C356.719 11.2093 357.569 11.004 358.558 11.004C359.267 11.004 359.897 11.1113 360.448 11.326C360.999 11.5313 361.479 11.8347 361.89 12.236L361.414 13.286C360.966 12.894 360.523 12.614 360.084 12.446C359.655 12.2687 359.155 12.18 358.586 12.18C357.494 12.18 356.659 12.516 356.08 13.188C355.501 13.86 355.212 14.8167 355.212 16.058C355.212 17.2993 355.501 18.2607 356.08 18.942C356.659 19.614 357.494 19.95 358.586 19.95C359.155 19.95 359.655 19.866 360.084 19.698C360.523 19.5207 360.966 19.236 361.414 18.844L361.89 19.88C361.479 20.2813 360.994 20.5893 360.434 20.804C359.883 21.0187 359.258 21.126 358.558 21.126ZM366.104 21.126C365.488 21.126 364.946 20.9813 364.48 20.692C364.013 20.4027 363.649 19.9827 363.388 19.432C363.126 18.8813 362.996 18.228 362.996 17.472C362.996 16.716 363.126 16.0673 363.388 15.526C363.649 14.9753 364.013 14.5553 364.48 14.266C364.946 13.9767 365.488 13.832 366.104 13.832C366.729 13.832 367.27 13.9907 367.728 14.308C368.194 14.616 368.502 15.0407 368.652 15.582H368.484L368.638 13.958H369.87C369.842 14.238 369.814 14.518 369.786 14.798C369.767 15.078 369.758 15.3533 369.758 15.624V21H368.484V19.39H368.638C368.488 19.922 368.18 20.3467 367.714 20.664C367.256 20.972 366.72 21.126 366.104 21.126ZM366.398 20.118C367.032 20.118 367.541 19.894 367.924 19.446C368.306 18.998 368.498 18.34 368.498 17.472C368.498 16.604 368.306 15.9507 367.924 15.512C367.541 15.0733 367.032 14.854 366.398 14.854C365.763 14.854 365.25 15.0733 364.858 15.512C364.475 15.9507 364.284 16.604 364.284 17.472C364.284 18.34 364.475 18.998 364.858 19.446C365.24 19.894 365.754 20.118 366.398 20.118ZM371.892 21V15.624C371.892 15.3533 371.883 15.078 371.864 14.798C371.845 14.518 371.817 14.238 371.78 13.958H373.012L373.152 15.47H372.984C373.171 14.9473 373.469 14.546 373.88 14.266C374.291 13.9767 374.781 13.832 375.35 13.832C375.929 13.832 376.405 13.972 376.778 14.252C377.151 14.5227 377.403 14.952 377.534 15.54H377.324C377.501 15.0173 377.814 14.602 378.262 14.294C378.71 13.986 379.233 13.832 379.83 13.832C380.605 13.832 381.188 14.0607 381.58 14.518C381.972 14.966 382.168 15.666 382.168 16.618V21H380.894V16.688C380.894 16.044 380.782 15.582 380.558 15.302C380.334 15.0127 379.979 14.868 379.494 14.868C378.925 14.868 378.477 15.064 378.15 15.456C377.823 15.8387 377.66 16.3613 377.66 17.024V21H376.386V16.688C376.386 16.044 376.274 15.582 376.05 15.302C375.835 15.0127 375.481 14.868 374.986 14.868C374.417 14.868 373.969 15.064 373.642 15.456C373.325 15.8387 373.166 16.3613 373.166 17.024V21H371.892ZM387.458 21.126C386.338 21.126 385.451 20.804 384.798 20.16C384.154 19.516 383.832 18.6293 383.832 17.5C383.832 16.7533 383.972 16.1093 384.252 15.568C384.541 15.0173 384.938 14.5927 385.442 14.294C385.946 13.986 386.534 13.832 387.206 13.832C387.85 13.832 388.396 13.972 388.844 14.252C389.292 14.5227 389.632 14.91 389.866 15.414C390.099 15.918 390.216 16.5153 390.216 17.206V17.626H384.826V16.87H389.348L389.11 17.052C389.11 16.324 388.946 15.7593 388.62 15.358C388.302 14.9567 387.831 14.756 387.206 14.756C386.524 14.756 385.997 14.994 385.624 15.47C385.25 15.9367 385.064 16.576 385.064 17.388V17.514C385.064 18.3727 385.274 19.0213 385.694 19.46C386.123 19.8987 386.716 20.118 387.472 20.118C387.892 20.118 388.284 20.0573 388.648 19.936C389.012 19.8147 389.362 19.614 389.698 19.334L390.118 20.216C389.8 20.5053 389.404 20.7293 388.928 20.888C388.461 21.0467 387.971 21.126 387.458 21.126ZM391.866 21V15.68C391.866 15.4 391.857 15.1153 391.838 14.826C391.829 14.5273 391.806 14.238 391.768 13.958H393L393.154 15.722L392.944 15.736C393.038 15.3067 393.196 14.952 393.42 14.672C393.654 14.3827 393.929 14.1727 394.246 14.042C394.573 13.902 394.909 13.832 395.254 13.832C395.404 13.832 395.53 13.8367 395.632 13.846C395.735 13.8553 395.838 13.8787 395.94 13.916L395.912 15.05C395.772 14.994 395.642 14.9613 395.52 14.952C395.408 14.9333 395.268 14.924 395.1 14.924C394.69 14.924 394.335 15.0173 394.036 15.204C393.747 15.3907 393.523 15.638 393.364 15.946C393.215 16.254 393.14 16.5853 393.14 16.94V21H391.866ZM399.682 21.126C399.066 21.126 398.524 20.9813 398.058 20.692C397.591 20.4027 397.227 19.9827 396.966 19.432C396.704 18.8813 396.574 18.228 396.574 17.472C396.574 16.716 396.704 16.0673 396.966 15.526C397.227 14.9753 397.591 14.5553 398.058 14.266C398.524 13.9767 399.066 13.832 399.682 13.832C400.307 13.832 400.848 13.9907 401.306 14.308C401.772 14.616 402.08 15.0407 402.23 15.582H402.062L402.216 13.958H403.448C403.42 14.238 403.392 14.518 403.364 14.798C403.345 15.078 403.336 15.3533 403.336 15.624V21H402.062V19.39H402.216C402.066 19.922 401.758 20.3467 401.292 20.664C400.834 20.972 400.298 21.126 399.682 21.126ZM399.976 20.118C400.61 20.118 401.119 19.894 401.502 19.446C401.884 18.998 402.076 18.34 402.076 17.472C402.076 16.604 401.884 15.9507 401.502 15.512C401.119 15.0733 400.61 14.854 399.976 14.854C399.341 14.854 398.828 15.0733 398.436 15.512C398.053 15.9507 397.862 16.604 397.862 17.472C397.862 18.34 398.053 18.998 398.436 19.446C398.818 19.894 399.332 20.118 399.976 20.118ZM411.85 21.126C411.234 21.126 410.692 20.9813 410.226 20.692C409.759 20.4027 409.395 19.9827 409.134 19.432C408.872 18.8813 408.742 18.228 408.742 17.472C408.742 16.716 408.872 16.0673 409.134 15.526C409.395 14.9753 409.759 14.5553 410.226 14.266C410.692 13.9767 411.234 13.832 411.85 13.832C412.475 13.832 413.016 13.9907 413.474 14.308C413.94 14.616 414.248 15.0407 414.398 15.582H414.23L414.384 13.958H415.616C415.588 14.238 415.56 14.518 415.532 14.798C415.513 15.078 415.504 15.3533 415.504 15.624V21H414.23V19.39H414.384C414.234 19.922 413.926 20.3467 413.46 20.664C413.002 20.972 412.466 21.126 411.85 21.126ZM412.144 20.118C412.778 20.118 413.287 19.894 413.67 19.446C414.052 18.998 414.244 18.34 414.244 17.472C414.244 16.604 414.052 15.9507 413.67 15.512C413.287 15.0733 412.778 14.854 412.144 14.854C411.509 14.854 410.996 15.0733 410.604 15.512C410.221 15.9507 410.03 16.604 410.03 17.472C410.03 18.34 410.221 18.998 410.604 19.446C410.986 19.894 411.5 20.118 412.144 20.118ZM420.662 21.126C419.962 21.126 419.356 20.9813 418.842 20.692C418.329 20.3933 417.928 19.9687 417.638 19.418C417.358 18.858 417.218 18.1953 417.218 17.43C417.218 16.674 417.363 16.03 417.652 15.498C417.942 14.9567 418.343 14.546 418.856 14.266C419.37 13.9767 419.972 13.832 420.662 13.832C421.12 13.832 421.563 13.9113 421.992 14.07C422.422 14.2193 422.772 14.4387 423.042 14.728L422.608 15.624C422.338 15.3627 422.039 15.1713 421.712 15.05C421.386 14.9193 421.064 14.854 420.746 14.854C420.056 14.854 419.514 15.078 419.122 15.526C418.73 15.9647 418.534 16.604 418.534 17.444C418.534 18.2933 418.73 18.9467 419.122 19.404C419.514 19.8613 420.056 20.09 420.746 20.09C421.054 20.09 421.372 20.0293 421.698 19.908C422.025 19.7867 422.328 19.5953 422.608 19.334L423.042 20.216C422.762 20.5147 422.403 20.7433 421.964 20.902C421.535 21.0513 421.101 21.126 420.662 21.126ZM427.484 21.126C426.784 21.126 426.178 20.9813 425.664 20.692C425.151 20.3933 424.75 19.9687 424.46 19.418C424.18 18.858 424.04 18.1953 424.04 17.43C424.04 16.674 424.185 16.03 424.474 15.498C424.764 14.9567 425.165 14.546 425.678 14.266C426.192 13.9767 426.794 13.832 427.484 13.832C427.942 13.832 428.385 13.9113 428.814 14.07C429.244 14.2193 429.594 14.4387 429.864 14.728L429.43 15.624C429.16 15.3627 428.861 15.1713 428.534 15.05C428.208 14.9193 427.886 14.854 427.568 14.854C426.878 14.854 426.336 15.078 425.944 15.526C425.552 15.9647 425.356 16.604 425.356 17.444C425.356 18.2933 425.552 18.9467 425.944 19.404C426.336 19.8613 426.878 20.09 427.568 20.09C427.876 20.09 428.194 20.0293 428.52 19.908C428.847 19.7867 429.15 19.5953 429.43 19.334L429.864 20.216C429.584 20.5147 429.225 20.7433 428.786 20.902C428.357 21.0513 427.923 21.126 427.484 21.126ZM434.489 21.126C433.369 21.126 432.482 20.804 431.829 20.16C431.185 19.516 430.863 18.6293 430.863 17.5C430.863 16.7533 431.003 16.1093 431.283 15.568C431.572 15.0173 431.969 14.5927 432.473 14.294C432.977 13.986 433.565 13.832 434.237 13.832C434.881 13.832 435.427 13.972 435.875 14.252C436.323 14.5227 436.663 14.91 436.897 15.414C437.13 15.918 437.247 16.5153 437.247 17.206V17.626H431.857V16.87H436.379L436.141 17.052C436.141 16.324 435.977 15.7593 435.651 15.358C435.333 14.9567 434.862 14.756 434.237 14.756C433.555 14.756 433.028 14.994 432.655 15.47C432.281 15.9367 432.095 16.576 432.095 17.388V17.514C432.095 18.3727 432.305 19.0213 432.725 19.46C433.154 19.8987 433.747 20.118 434.503 20.118C434.923 20.118 435.315 20.0573 435.679 19.936C436.043 19.8147 436.393 19.614 436.729 19.334L437.149 20.216C436.831 20.5053 436.435 20.7293 435.959 20.888C435.492 21.0467 435.002 21.126 434.489 21.126ZM441.292 21.126C440.722 21.126 440.19 21.0513 439.696 20.902C439.21 20.7527 438.809 20.538 438.492 20.258L438.898 19.376C439.243 19.6373 439.621 19.838 440.032 19.978C440.452 20.1087 440.881 20.174 441.32 20.174C441.852 20.174 442.253 20.076 442.524 19.88C442.804 19.684 442.944 19.4227 442.944 19.096C442.944 18.8347 442.855 18.6247 442.678 18.466C442.5 18.3073 442.22 18.1907 441.838 18.116L440.508 17.85C439.91 17.71 439.458 17.486 439.15 17.178C438.851 16.8607 438.702 16.4547 438.702 15.96C438.702 15.5493 438.814 15.1853 439.038 14.868C439.262 14.5413 439.579 14.2893 439.99 14.112C440.41 13.9253 440.9 13.832 441.46 13.832C441.973 13.832 442.449 13.9067 442.888 14.056C443.336 14.2053 443.704 14.4247 443.994 14.714L443.574 15.568C443.284 15.316 442.958 15.1247 442.594 14.994C442.239 14.854 441.875 14.784 441.502 14.784C440.96 14.784 440.559 14.8913 440.298 15.106C440.036 15.3113 439.906 15.582 439.906 15.918C439.906 16.17 439.985 16.38 440.144 16.548C440.302 16.7067 440.559 16.828 440.914 16.912L442.244 17.178C442.869 17.3087 443.34 17.5233 443.658 17.822C443.975 18.1207 444.134 18.5173 444.134 19.012C444.134 19.4507 444.012 19.8287 443.77 20.146C443.536 20.4633 443.205 20.706 442.776 20.874C442.356 21.042 441.861 21.126 441.292 21.126ZM449.562 21V13.958H450.836V21H449.562ZM449.45 12.418V11.046H450.962V12.418H449.45ZM455.346 21.126C454.777 21.126 454.245 21.0513 453.75 20.902C453.265 20.7527 452.864 20.538 452.546 20.258L452.952 19.376C453.298 19.6373 453.676 19.838 454.086 19.978C454.506 20.1087 454.936 20.174 455.374 20.174C455.906 20.174 456.308 20.076 456.578 19.88C456.858 19.684 456.998 19.4227 456.998 19.096C456.998 18.8347 456.91 18.6247 456.732 18.466C456.555 18.3073 456.275 18.1907 455.892 18.116L454.562 17.85C453.965 17.71 453.512 17.486 453.204 17.178C452.906 16.8607 452.756 16.4547 452.756 15.96C452.756 15.5493 452.868 15.1853 453.092 14.868C453.316 14.5413 453.634 14.2893 454.044 14.112C454.464 13.9253 454.954 13.832 455.514 13.832C456.028 13.832 456.504 13.9067 456.942 14.056C457.39 14.2053 457.759 14.4247 458.048 14.714L457.628 15.568C457.339 15.316 457.012 15.1247 456.648 14.994C456.294 14.854 455.93 14.784 455.556 14.784C455.015 14.784 454.614 14.8913 454.352 15.106C454.091 15.3113 453.96 15.582 453.96 15.918C453.96 16.17 454.04 16.38 454.198 16.548C454.357 16.7067 454.614 16.828 454.968 16.912L456.298 17.178C456.924 17.3087 457.395 17.5233 457.712 17.822C458.03 18.1207 458.188 18.5173 458.188 19.012C458.188 19.4507 458.067 19.8287 457.824 20.146C457.591 20.4633 457.26 20.706 456.83 20.874C456.41 21.042 455.916 21.126 455.346 21.126ZM463.603 21V15.68C463.603 15.4 463.593 15.1153 463.575 14.826C463.565 14.5273 463.542 14.238 463.505 13.958H464.737L464.891 15.722L464.681 15.736C464.774 15.3067 464.933 14.952 465.157 14.672C465.39 14.3827 465.665 14.1727 465.983 14.042C466.309 13.902 466.645 13.832 466.991 13.832C467.14 13.832 467.266 13.8367 467.369 13.846C467.471 13.8553 467.574 13.8787 467.677 13.916L467.649 15.05C467.509 14.994 467.378 14.9613 467.257 14.952C467.145 14.9333 467.005 14.924 466.837 14.924C466.426 14.924 466.071 15.0173 465.773 15.204C465.483 15.3907 465.259 15.638 465.101 15.946C464.951 16.254 464.877 16.5853 464.877 16.94V21H463.603ZM471.909 21.126C470.789 21.126 469.902 20.804 469.249 20.16C468.605 19.516 468.283 18.6293 468.283 17.5C468.283 16.7533 468.423 16.1093 468.703 15.568C468.992 15.0173 469.389 14.5927 469.893 14.294C470.397 13.986 470.985 13.832 471.657 13.832C472.301 13.832 472.847 13.972 473.295 14.252C473.743 14.5227 474.083 14.91 474.317 15.414C474.55 15.918 474.667 16.5153 474.667 17.206V17.626H469.277V16.87H473.799L473.561 17.052C473.561 16.324 473.397 15.7593 473.071 15.358C472.753 14.9567 472.282 14.756 471.657 14.756C470.975 14.756 470.448 14.994 470.075 15.47C469.701 15.9367 469.515 16.576 469.515 17.388V17.514C469.515 18.3727 469.725 19.0213 470.145 19.46C470.574 19.8987 471.167 20.118 471.923 20.118C472.343 20.118 472.735 20.0573 473.099 19.936C473.463 19.8147 473.813 19.614 474.149 19.334L474.569 20.216C474.251 20.5053 473.855 20.7293 473.379 20.888C472.912 21.0467 472.422 21.126 471.909 21.126ZM481.4 24.024V19.39H481.554C481.404 19.922 481.096 20.3467 480.63 20.664C480.172 20.972 479.636 21.126 479.02 21.126C478.404 21.126 477.862 20.9813 477.396 20.692C476.929 20.4027 476.565 19.9827 476.304 19.432C476.042 18.8813 475.912 18.228 475.912 17.472C475.912 16.716 476.042 16.0673 476.304 15.526C476.565 14.9753 476.929 14.5553 477.396 14.266C477.862 13.9767 478.404 13.832 479.02 13.832C479.645 13.832 480.186 13.9907 480.644 14.308C481.11 14.616 481.418 15.0407 481.568 15.582H481.4L481.554 13.958H482.786C482.758 14.238 482.73 14.518 482.702 14.798C482.683 15.078 482.674 15.3533 482.674 15.624V24.024H481.4ZM479.314 20.118C479.948 20.118 480.457 19.894 480.84 19.446C481.222 18.998 481.414 18.34 481.414 17.472C481.414 16.604 481.222 15.9507 480.84 15.512C480.457 15.0733 479.948 14.854 479.314 14.854C478.679 14.854 478.166 15.0733 477.774 15.512C477.391 15.9507 477.2 16.604 477.2 17.472C477.2 18.34 477.391 18.998 477.774 19.446C478.156 19.894 478.67 20.118 479.314 20.118ZM487.314 21.126C486.465 21.126 485.825 20.8973 485.396 20.44C484.976 19.9827 484.766 19.278 484.766 18.326V13.958H486.04V18.298C486.04 18.914 486.166 19.3667 486.418 19.656C486.67 19.9453 487.062 20.09 487.594 20.09C488.173 20.09 488.639 19.8987 488.994 19.516C489.358 19.124 489.54 18.606 489.54 17.962V13.958H490.814V21H489.582V19.446H489.764C489.568 19.978 489.255 20.3933 488.826 20.692C488.397 20.9813 487.893 21.126 487.314 21.126ZM492.957 21V13.958H494.231V21H492.957ZM492.845 12.418V11.046H494.357V12.418H492.845ZM496.347 21V15.68C496.347 15.4 496.338 15.1153 496.319 14.826C496.31 14.5273 496.286 14.238 496.249 13.958H497.481L497.635 15.722L497.425 15.736C497.518 15.3067 497.677 14.952 497.901 14.672C498.134 14.3827 498.41 14.1727 498.727 14.042C499.054 13.902 499.39 13.832 499.735 13.832C499.884 13.832 500.01 13.8367 500.113 13.846C500.216 13.8553 500.318 13.8787 500.421 13.916L500.393 15.05C500.253 14.994 500.122 14.9613 500.001 14.952C499.889 14.9333 499.749 14.924 499.581 14.924C499.17 14.924 498.816 15.0173 498.517 15.204C498.228 15.3907 498.004 15.638 497.845 15.946C497.696 16.254 497.621 16.5853 497.621 16.94V21H496.347ZM504.653 21.126C503.533 21.126 502.646 20.804 501.993 20.16C501.349 19.516 501.027 18.6293 501.027 17.5C501.027 16.7533 501.167 16.1093 501.447 15.568C501.736 15.0173 502.133 14.5927 502.637 14.294C503.141 13.986 503.729 13.832 504.401 13.832C505.045 13.832 505.591 13.972 506.039 14.252C506.487 14.5227 506.827 14.91 507.061 15.414C507.294 15.918 507.411 16.5153 507.411 17.206V17.626H502.021V16.87H506.543L506.305 17.052C506.305 16.324 506.141 15.7593 505.815 15.358C505.497 14.9567 505.026 14.756 504.401 14.756C503.719 14.756 503.192 14.994 502.819 15.47C502.445 15.9367 502.259 16.576 502.259 17.388V17.514C502.259 18.3727 502.469 19.0213 502.889 19.46C503.318 19.8987 503.911 20.118 504.667 20.118C505.087 20.118 505.479 20.0573 505.843 19.936C506.207 19.8147 506.557 19.614 506.893 19.334L507.313 20.216C506.995 20.5053 506.599 20.7293 506.123 20.888C505.656 21.0467 505.166 21.126 504.653 21.126ZM511.456 21.126C510.886 21.126 510.354 21.0513 509.86 20.902C509.374 20.7527 508.973 20.538 508.656 20.258L509.062 19.376C509.407 19.6373 509.785 19.838 510.196 19.978C510.616 20.1087 511.045 20.174 511.484 20.174C512.016 20.174 512.417 20.076 512.688 19.88C512.968 19.684 513.108 19.4227 513.108 19.096C513.108 18.8347 513.019 18.6247 512.842 18.466C512.664 18.3073 512.384 18.1907 512.002 18.116L510.672 17.85C510.074 17.71 509.622 17.486 509.314 17.178C509.015 16.8607 508.866 16.4547 508.866 15.96C508.866 15.5493 508.978 15.1853 509.202 14.868C509.426 14.5413 509.743 14.2893 510.154 14.112C510.574 13.9253 511.064 13.832 511.624 13.832C512.137 13.832 512.613 13.9067 513.052 14.056C513.5 14.2053 513.868 14.4247 514.158 14.714L513.738 15.568C513.448 15.316 513.122 15.1247 512.758 14.994C512.403 14.854 512.039 14.784 511.666 14.784C511.124 14.784 510.723 14.8913 510.462 15.106C510.2 15.3113 510.07 15.582 510.07 15.918C510.07 16.17 510.149 16.38 510.308 16.548C510.466 16.7067 510.723 16.828 511.078 16.912L512.408 17.178C513.033 17.3087 513.504 17.5233 513.822 17.822C514.139 18.1207 514.298 18.5173 514.298 19.012C514.298 19.4507 514.176 19.8287 513.934 20.146C513.7 20.4633 513.369 20.706 512.94 20.874C512.52 21.042 512.025 21.126 511.456 21.126ZM523.38 21.126C522.755 21.126 522.213 20.972 521.756 20.664C521.299 20.3467 520.995 19.9127 520.846 19.362H521V21H519.726V10.696H521V15.568H520.846C521.005 15.0267 521.308 14.602 521.756 14.294C522.213 13.986 522.755 13.832 523.38 13.832C524.005 13.832 524.551 13.9813 525.018 14.28C525.485 14.5693 525.844 14.9847 526.096 15.526C526.357 16.0673 526.488 16.7207 526.488 17.486C526.488 18.242 526.357 18.8953 526.096 19.446C525.844 19.9873 525.48 20.4027 525.004 20.692C524.537 20.9813 523.996 21.126 523.38 21.126ZM523.086 20.118C523.721 20.118 524.229 19.8987 524.612 19.46C525.004 19.012 525.2 18.354 525.2 17.486C525.2 16.618 525.004 15.9647 524.612 15.526C524.229 15.078 523.721 14.854 523.086 14.854C522.442 14.854 521.929 15.0733 521.546 15.512C521.173 15.9507 520.986 16.604 520.986 17.472C520.986 18.34 521.173 18.998 521.546 19.446C521.929 19.894 522.442 20.118 523.086 20.118ZM530.709 21.126C529.859 21.126 529.22 20.8973 528.791 20.44C528.371 19.9827 528.161 19.278 528.161 18.326V13.958H529.435V18.298C529.435 18.914 529.561 19.3667 529.813 19.656C530.065 19.9453 530.457 20.09 530.989 20.09C531.567 20.09 532.034 19.8987 532.389 19.516C532.753 19.124 532.935 18.606 532.935 17.962V13.958H534.209V21H532.977V19.446H533.159C532.963 19.978 532.65 20.3933 532.221 20.692C531.791 20.9813 531.287 21.126 530.709 21.126ZM538.983 21.126C538.246 21.126 537.686 20.9253 537.303 20.524C536.93 20.1133 536.743 19.4973 536.743 18.676V14.938H535.371V13.958H536.743V12.068L538.017 11.718V13.958H540.005V14.938H538.017V18.564C538.017 19.1053 538.11 19.4927 538.297 19.726C538.493 19.95 538.773 20.062 539.137 20.062C539.324 20.062 539.482 20.048 539.613 20.02C539.753 19.9827 539.879 19.9407 539.991 19.894V20.944C539.851 21 539.688 21.042 539.501 21.07C539.324 21.1073 539.151 21.126 538.983 21.126Z" fill="#27262B"/>
<path d="M355.912 41L353.154 33.93H354.96L356.948 39.432H356.584L358.6 33.93H359.846L361.848 39.432H361.526L363.5 33.93H365.208L362.45 41H360.91L358.796 35.372H359.538L357.466 41H355.912ZM369.591 41.14C368.405 41.14 367.477 40.8133 366.805 40.16C366.133 39.5067 365.797 38.6107 365.797 37.472C365.797 36.7347 365.941 36.0907 366.231 35.54C366.52 34.9893 366.921 34.56 367.435 34.252C367.957 33.944 368.564 33.79 369.255 33.79C369.936 33.79 370.505 33.9347 370.963 34.224C371.42 34.5133 371.765 34.9193 371.999 35.442C372.241 35.9647 372.363 36.576 372.363 37.276V37.738H367.211V36.814H371.117L370.879 37.01C370.879 36.3567 370.739 35.8573 370.459 35.512C370.188 35.1667 369.791 34.994 369.269 34.994C368.69 34.994 368.242 35.1993 367.925 35.61C367.617 36.0207 367.463 36.5947 367.463 37.332V37.514C367.463 38.2793 367.649 38.8533 368.023 39.236C368.405 39.6093 368.942 39.796 369.633 39.796C370.034 39.796 370.407 39.7447 370.753 39.642C371.107 39.53 371.443 39.3527 371.761 39.11L372.279 40.286C371.943 40.5567 371.541 40.7667 371.075 40.916C370.608 41.0653 370.113 41.14 369.591 41.14ZM380.43 41.14C379.814 41.14 379.268 40.9953 378.792 40.706C378.326 40.4073 377.962 39.9827 377.7 39.432C377.439 38.8813 377.308 38.2233 377.308 37.458C377.308 36.6927 377.439 36.0393 377.7 35.498C377.962 34.9473 378.326 34.5273 378.792 34.238C379.268 33.9393 379.814 33.79 380.43 33.79C381.018 33.79 381.536 33.9347 381.984 34.224C382.442 34.504 382.745 34.8867 382.894 35.372H382.712V30.696H384.462V41H382.74V39.502H382.908C382.759 40.006 382.456 40.4073 381.998 40.706C381.55 40.9953 381.028 41.14 380.43 41.14ZM380.92 39.796C381.471 39.796 381.914 39.6047 382.25 39.222C382.586 38.83 382.754 38.242 382.754 37.458C382.754 36.674 382.586 36.0907 382.25 35.708C381.914 35.3253 381.471 35.134 380.92 35.134C380.37 35.134 379.922 35.3253 379.576 35.708C379.24 36.0907 379.072 36.674 379.072 37.458C379.072 38.242 379.24 38.83 379.576 39.222C379.922 39.6047 380.37 39.796 380.92 39.796ZM389.56 41.14C388.832 41.14 388.202 40.9907 387.67 40.692C387.138 40.3933 386.723 39.9687 386.424 39.418C386.135 38.8673 385.99 38.214 385.99 37.458C385.99 36.702 386.135 36.0533 386.424 35.512C386.723 34.9613 387.138 34.5367 387.67 34.238C388.202 33.9393 388.832 33.79 389.56 33.79C390.288 33.79 390.918 33.9393 391.45 34.238C391.991 34.5367 392.407 34.9613 392.696 35.512C392.995 36.0533 393.144 36.702 393.144 37.458C393.144 38.214 392.995 38.8673 392.696 39.418C392.407 39.9687 391.991 40.3933 391.45 40.692C390.918 40.9907 390.288 41.14 389.56 41.14ZM389.56 39.796C390.111 39.796 390.549 39.6047 390.876 39.222C391.203 38.83 391.366 38.242 391.366 37.458C391.366 36.674 391.203 36.0907 390.876 35.708C390.549 35.3253 390.111 35.134 389.56 35.134C389.009 35.134 388.571 35.3253 388.244 35.708C387.917 36.0907 387.754 36.674 387.754 37.458C387.754 38.242 387.917 38.83 388.244 39.222C388.571 39.6047 389.009 39.796 389.56 39.796ZM394.653 41V35.694C394.653 35.4047 394.644 35.1107 394.625 34.812C394.607 34.5133 394.579 34.2193 394.541 33.93H396.235L396.375 35.33H396.207C396.431 34.8353 396.763 34.4573 397.201 34.196C397.64 33.9253 398.149 33.79 398.727 33.79C399.558 33.79 400.183 34.0233 400.603 34.49C401.023 34.9567 401.233 35.6847 401.233 36.674V41H399.483V36.758C399.483 36.1887 399.371 35.7827 399.147 35.54C398.933 35.288 398.606 35.162 398.167 35.162C397.626 35.162 397.197 35.33 396.879 35.666C396.562 36.002 396.403 36.45 396.403 37.01V41H394.653ZM403.515 34.924L402.801 34.364C403.099 34.056 403.305 33.7713 403.417 33.51C403.538 33.2393 403.599 32.9593 403.599 32.67L404.033 33.062H402.661V31.13H404.621V32.404C404.621 32.88 404.537 33.3187 404.369 33.72C404.21 34.112 403.925 34.5133 403.515 34.924ZM409.408 41.14C408.568 41.14 407.933 40.9207 407.504 40.482C407.074 40.0433 406.86 39.3853 406.86 38.508V35.246H405.502V33.93H406.86V32.124L408.61 31.676V33.93H410.5V35.246H408.61V38.396C408.61 38.8813 408.703 39.222 408.89 39.418C409.076 39.614 409.333 39.712 409.66 39.712C409.837 39.712 409.986 39.698 410.108 39.67C410.238 39.642 410.364 39.6047 410.486 39.558V40.944C410.327 41.0093 410.15 41.056 409.954 41.084C409.767 41.1213 409.585 41.14 409.408 41.14ZM415.516 41V35.736C415.516 35.4373 415.507 35.134 415.488 34.826C415.479 34.518 415.455 34.2193 415.418 33.93H417.112L417.308 35.862H417.028C417.121 35.3953 417.275 35.008 417.49 34.7C417.714 34.392 417.985 34.1633 418.302 34.014C418.619 33.8647 418.965 33.79 419.338 33.79C419.506 33.79 419.641 33.7993 419.744 33.818C419.847 33.8273 419.949 33.8507 420.052 33.888L420.038 35.428C419.861 35.3533 419.707 35.3067 419.576 35.288C419.455 35.2693 419.301 35.26 419.114 35.26C418.713 35.26 418.372 35.344 418.092 35.512C417.821 35.68 417.616 35.9133 417.476 36.212C417.345 36.5107 417.28 36.8513 417.28 37.234V41H415.516ZM424.333 41.14C423.148 41.14 422.219 40.8133 421.547 40.16C420.875 39.5067 420.539 38.6107 420.539 37.472C420.539 36.7347 420.684 36.0907 420.973 35.54C421.262 34.9893 421.664 34.56 422.177 34.252C422.7 33.944 423.306 33.79 423.997 33.79C424.678 33.79 425.248 33.9347 425.705 34.224C426.162 34.5133 426.508 34.9193 426.741 35.442C426.984 35.9647 427.105 36.576 427.105 37.276V37.738H421.953V36.814H425.859L425.621 37.01C425.621 36.3567 425.481 35.8573 425.201 35.512C424.93 35.1667 424.534 34.994 424.011 34.994C423.432 34.994 422.984 35.1993 422.667 35.61C422.359 36.0207 422.205 36.5947 422.205 37.332V37.514C422.205 38.2793 422.392 38.8533 422.765 39.236C423.148 39.6093 423.684 39.796 424.375 39.796C424.776 39.796 425.15 39.7447 425.495 39.642C425.85 39.53 426.186 39.3527 426.503 39.11L427.021 40.286C426.685 40.5567 426.284 40.7667 425.817 40.916C425.35 41.0653 424.856 41.14 424.333 41.14ZM431.835 41.14C431.107 41.14 430.467 40.9907 429.917 40.692C429.375 40.3933 428.955 39.9687 428.657 39.418C428.358 38.858 428.209 38.1953 428.209 37.43C428.209 36.6647 428.358 36.0113 428.657 35.47C428.965 34.9287 429.389 34.5133 429.931 34.224C430.472 33.9347 431.107 33.79 431.835 33.79C432.301 33.79 432.754 33.8647 433.193 34.014C433.641 34.154 434.005 34.3593 434.285 34.63L433.753 35.848C433.501 35.6147 433.216 35.442 432.899 35.33C432.591 35.2087 432.287 35.148 431.989 35.148C431.363 35.148 430.873 35.344 430.519 35.736C430.173 36.128 430.001 36.6973 430.001 37.444C430.001 38.1907 430.173 38.7647 430.519 39.166C430.873 39.5673 431.363 39.768 431.989 39.768C432.278 39.768 432.577 39.712 432.885 39.6C433.202 39.488 433.491 39.3153 433.753 39.082L434.285 40.286C433.995 40.5567 433.627 40.7667 433.179 40.916C432.74 41.0653 432.292 41.14 431.835 41.14ZM438.697 41.14C437.969 41.14 437.339 40.9907 436.807 40.692C436.275 40.3933 435.859 39.9687 435.561 39.418C435.271 38.8673 435.127 38.214 435.127 37.458C435.127 36.702 435.271 36.0533 435.561 35.512C435.859 34.9613 436.275 34.5367 436.807 34.238C437.339 33.9393 437.969 33.79 438.697 33.79C439.425 33.79 440.055 33.9393 440.587 34.238C441.128 34.5367 441.543 34.9613 441.833 35.512C442.131 36.0533 442.281 36.702 442.281 37.458C442.281 38.214 442.131 38.8673 441.833 39.418C441.543 39.9687 441.128 40.3933 440.587 40.692C440.055 40.9907 439.425 41.14 438.697 41.14ZM438.697 39.796C439.247 39.796 439.686 39.6047 440.013 39.222C440.339 38.83 440.503 38.242 440.503 37.458C440.503 36.674 440.339 36.0907 440.013 35.708C439.686 35.3253 439.247 35.134 438.697 35.134C438.146 35.134 437.707 35.3253 437.381 35.708C437.054 36.0907 436.891 36.674 436.891 37.458C436.891 38.242 437.054 38.83 437.381 39.222C437.707 39.6047 438.146 39.796 438.697 39.796ZM443.776 41V35.736C443.776 35.4373 443.767 35.134 443.748 34.826C443.739 34.518 443.715 34.2193 443.678 33.93H445.372L445.568 35.862H445.288C445.381 35.3953 445.535 35.008 445.75 34.7C445.974 34.392 446.245 34.1633 446.562 34.014C446.879 33.8647 447.225 33.79 447.598 33.79C447.766 33.79 447.901 33.7993 448.004 33.818C448.107 33.8273 448.209 33.8507 448.312 33.888L448.298 35.428C448.121 35.3533 447.967 35.3067 447.836 35.288C447.715 35.2693 447.561 35.26 447.374 35.26C446.973 35.26 446.632 35.344 446.352 35.512C446.081 35.68 445.876 35.9133 445.736 36.212C445.605 36.5107 445.54 36.8513 445.54 37.234V41H443.776ZM451.921 41.14C451.305 41.14 450.759 40.9953 450.283 40.706C449.816 40.4073 449.452 39.9827 449.191 39.432C448.929 38.8813 448.799 38.2233 448.799 37.458C448.799 36.6927 448.929 36.0393 449.191 35.498C449.452 34.9473 449.816 34.5273 450.283 34.238C450.759 33.9393 451.305 33.79 451.921 33.79C452.509 33.79 453.027 33.9347 453.475 34.224C453.932 34.504 454.235 34.8867 454.385 35.372H454.203V30.696H455.953V41H454.231V39.502H454.399C454.249 40.006 453.946 40.4073 453.489 40.706C453.041 40.9953 452.518 41.14 451.921 41.14ZM452.411 39.796C452.961 39.796 453.405 39.6047 453.741 39.222C454.077 38.83 454.245 38.242 454.245 37.458C454.245 36.674 454.077 36.0907 453.741 35.708C453.405 35.3253 452.961 35.134 452.411 35.134C451.86 35.134 451.412 35.3253 451.067 35.708C450.731 36.0907 450.563 36.674 450.563 37.458C450.563 38.242 450.731 38.83 451.067 39.222C451.412 39.6047 451.86 39.796 452.411 39.796ZM464.43 41.14C463.814 41.14 463.273 40.9953 462.806 40.706C462.339 40.4073 461.975 39.9827 461.714 39.432C461.453 38.8813 461.322 38.2233 461.322 37.458C461.322 36.6927 461.453 36.0393 461.714 35.498C461.975 34.9473 462.339 34.5273 462.806 34.238C463.273 33.9393 463.814 33.79 464.43 33.79C465.027 33.79 465.55 33.9393 465.998 34.238C466.455 34.5273 466.759 34.9193 466.908 35.414H466.754L466.908 33.93H468.588C468.56 34.2193 468.532 34.5133 468.504 34.812C468.485 35.1107 468.476 35.4047 468.476 35.694V41H466.74L466.726 39.544H466.894C466.745 40.0293 466.441 40.4167 465.984 40.706C465.527 40.9953 465.009 41.14 464.43 41.14ZM464.92 39.796C465.471 39.796 465.914 39.6047 466.25 39.222C466.586 38.83 466.754 38.242 466.754 37.458C466.754 36.674 466.586 36.0907 466.25 35.708C465.914 35.3253 465.471 35.134 464.92 35.134C464.369 35.134 463.926 35.3253 463.59 35.708C463.254 36.0907 463.086 36.674 463.086 37.458C463.086 38.242 463.249 38.83 463.576 39.222C463.912 39.6047 464.36 39.796 464.92 39.796ZM470.382 41V35.694C470.382 35.4047 470.372 35.1107 470.354 34.812C470.335 34.5133 470.307 34.2193 470.27 33.93H471.964L472.104 35.33H471.936C472.16 34.8353 472.491 34.4573 472.93 34.196C473.368 33.9253 473.877 33.79 474.456 33.79C475.286 33.79 475.912 34.0233 476.332 34.49C476.752 34.9567 476.962 35.6847 476.962 36.674V41H475.212V36.758C475.212 36.1887 475.1 35.7827 474.876 35.54C474.661 35.288 474.334 35.162 473.896 35.162C473.354 35.162 472.925 35.33 472.608 35.666C472.29 36.002 472.132 36.45 472.132 37.01V41H470.382ZM478.609 44.178L478.203 42.792C478.642 42.6987 479.01 42.5913 479.309 42.47C479.608 42.3487 479.855 42.19 480.051 41.994C480.247 41.798 480.41 41.546 480.541 41.238L480.891 40.412L480.849 41.098L477.769 33.93H479.631L481.843 39.446H481.437L483.663 33.93H485.427L482.207 41.392C481.992 41.896 481.759 42.3113 481.507 42.638C481.255 42.974 480.984 43.24 480.695 43.436C480.406 43.6413 480.088 43.8 479.743 43.912C479.398 44.024 479.02 44.1127 478.609 44.178ZM492.264 41L489.212 33.93H491.074L493.286 39.46H492.852L495.12 33.93H496.87L493.804 41H492.264ZM497.807 41V33.93H499.557V41H497.807ZM497.709 32.6V30.892H499.655V32.6H497.709ZM504.202 41.14C503.586 41.14 503.04 40.9953 502.564 40.706C502.097 40.4073 501.733 39.9827 501.472 39.432C501.211 38.8813 501.08 38.2233 501.08 37.458C501.08 36.6927 501.211 36.0393 501.472 35.498C501.733 34.9473 502.097 34.5273 502.564 34.238C503.04 33.9393 503.586 33.79 504.202 33.79C504.79 33.79 505.308 33.9347 505.756 34.224C506.213 34.504 506.517 34.8867 506.666 35.372H506.484V30.696H508.234V41H506.512V39.502H506.68C506.531 40.006 506.227 40.4073 505.77 40.706C505.322 40.9953 504.799 41.14 504.202 41.14ZM504.692 39.796C505.243 39.796 505.686 39.6047 506.022 39.222C506.358 38.83 506.526 38.242 506.526 37.458C506.526 36.674 506.358 36.0907 506.022 35.708C505.686 35.3253 505.243 35.134 504.692 35.134C504.141 35.134 503.693 35.3253 503.348 35.708C503.012 36.0907 502.844 36.674 502.844 37.458C502.844 38.242 503.012 38.83 503.348 39.222C503.693 39.6047 504.141 39.796 504.692 39.796ZM513.556 41.14C512.37 41.14 511.442 40.8133 510.77 40.16C510.098 39.5067 509.762 38.6107 509.762 37.472C509.762 36.7347 509.906 36.0907 510.196 35.54C510.485 34.9893 510.886 34.56 511.4 34.252C511.922 33.944 512.529 33.79 513.22 33.79C513.901 33.79 514.47 33.9347 514.928 34.224C515.385 34.5133 515.73 34.9193 515.964 35.442C516.206 35.9647 516.328 36.576 516.328 37.276V37.738H511.176V36.814H515.082L514.844 37.01C514.844 36.3567 514.704 35.8573 514.424 35.512C514.153 35.1667 513.756 34.994 513.234 34.994C512.655 34.994 512.207 35.1993 511.89 35.61C511.582 36.0207 511.428 36.5947 511.428 37.332V37.514C511.428 38.2793 511.614 38.8533 511.988 39.236C512.37 39.6093 512.907 39.796 513.598 39.796C513.999 39.796 514.372 39.7447 514.718 39.642C515.072 39.53 515.408 39.3527 515.726 39.11L516.244 40.286C515.908 40.5567 515.506 40.7667 515.04 40.916C514.573 41.0653 514.078 41.14 513.556 41.14ZM521.001 41.14C520.273 41.14 519.643 40.9907 519.111 40.692C518.579 40.3933 518.164 39.9687 517.865 39.418C517.576 38.8673 517.431 38.214 517.431 37.458C517.431 36.702 517.576 36.0533 517.865 35.512C518.164 34.9613 518.579 34.5367 519.111 34.238C519.643 33.9393 520.273 33.79 521.001 33.79C521.729 33.79 522.359 33.9393 522.891 34.238C523.433 34.5367 523.848 34.9613 524.137 35.512C524.436 36.0533 524.585 36.702 524.585 37.458C524.585 38.214 524.436 38.8673 524.137 39.418C523.848 39.9687 523.433 40.3933 522.891 40.692C522.359 40.9907 521.729 41.14 521.001 41.14ZM521.001 39.796C521.552 39.796 521.991 39.6047 522.317 39.222C522.644 38.83 522.807 38.242 522.807 37.458C522.807 36.674 522.644 36.0907 522.317 35.708C521.991 35.3253 521.552 35.134 521.001 35.134C520.451 35.134 520.012 35.3253 519.685 35.708C519.359 36.0907 519.195 36.674 519.195 37.458C519.195 38.242 519.359 38.83 519.685 39.222C520.012 39.6047 520.451 39.796 521.001 39.796ZM528.615 41.14C528.008 41.14 527.448 41.07 526.935 40.93C526.431 40.7807 526.006 40.5753 525.661 40.314L526.151 39.138C526.505 39.3807 526.897 39.5673 527.327 39.698C527.756 39.8287 528.19 39.894 528.629 39.894C529.095 39.894 529.441 39.8147 529.665 39.656C529.898 39.4973 530.015 39.2827 530.015 39.012C530.015 38.7973 529.94 38.6293 529.791 38.508C529.651 38.3773 529.422 38.2793 529.105 38.214L527.705 37.948C527.107 37.8173 526.65 37.5933 526.333 37.276C526.025 36.9587 525.871 36.5433 525.871 36.03C525.871 35.5913 525.987 35.204 526.221 34.868C526.463 34.532 526.804 34.2707 527.243 34.084C527.691 33.888 528.213 33.79 528.811 33.79C529.333 33.79 529.823 33.86 530.281 34C530.747 34.14 531.139 34.35 531.457 34.63L530.953 35.764C530.663 35.5307 530.332 35.3487 529.959 35.218C529.585 35.0873 529.221 35.022 528.867 35.022C528.381 35.022 528.027 35.1107 527.803 35.288C527.579 35.456 527.467 35.6753 527.467 35.946C527.467 36.1513 527.532 36.324 527.663 36.464C527.803 36.5947 528.017 36.6927 528.307 36.758L529.707 37.024C530.332 37.1453 530.803 37.36 531.121 37.668C531.447 37.9667 531.611 38.3773 531.611 38.9C531.611 39.3667 531.485 39.768 531.233 40.104C530.981 40.44 530.631 40.6967 530.183 40.874C529.735 41.0513 529.212 41.14 528.615 41.14Z" fill="#27262B"/>
<defs>
<clipPath id="clip0_325_325">
<rect width="45.5422" height="45.5422" fill="white" transform="translate(289.154 4.76013)"/>
</clipPath>
</defs>
</svg>
