<svg width="100" height="60" viewBox="0 0 100 60" fill="none" xmlns="http://www.w3.org/2000/svg">
<g clip-path="url(#clip0_325_665)">
<path d="M15.4167 45.8335C23.9311 45.8335 30.8334 38.9312 30.8334 30.4168C30.8334 21.9024 23.9311 15.0001 15.4167 15.0001C6.90229 15.0001 0 21.9024 0 30.4168C0 38.9312 6.90229 45.8335 15.4167 45.8335Z" fill="url(#paint0_linear_325_665)"/>
<path d="M15.4165 23.6194C14.5189 23.6194 13.7912 24.347 13.7912 25.2446C13.7912 25.9402 14.2283 26.5334 14.8427 26.7653H13.4601L10.4716 25.3149V22.7774C10.4716 22.4184 10.1805 22.1273 9.82148 22.1273C9.46244 22.1273 9.17139 22.4184 9.17139 22.7774V26.1292L13.1662 28.0679V41.541C13.1662 41.9884 13.5162 42.3722 13.9636 42.3804C14.4193 42.3887 14.7914 42.0218 14.7914 41.5679V34.5729H15.4165L16.0521 29.7173L15.4165 23.6194Z" fill="white"/>
<path d="M21.0115 22.1273C20.6525 22.1273 20.3614 22.4184 20.3614 22.7774V25.3149L17.3729 26.7653H15.9903C16.6047 26.5334 17.0418 25.9402 17.0418 25.2446C17.0418 24.347 16.3141 23.6194 15.4165 23.6194V34.5729H16.0415V41.541C16.0415 41.9884 16.3916 42.3722 16.8389 42.3804C17.2947 42.3887 17.6668 42.0218 17.6668 41.5679V28.0679L21.6616 26.1292V22.7774C21.6616 22.4184 21.3705 22.1273 21.0115 22.1273Z" fill="white"/>
<path d="M6.5708 21.5961H13.0718V22.5713H6.5708V21.5961Z" fill="white"/>
<path d="M7.54639 20.621H8.52155V23.5465H7.54639V20.621Z" fill="white"/>
<path d="M11.1226 20.621H12.0977V23.5465H11.1226V20.621Z" fill="white"/>
<path d="M17.7598 21.5961H24.2607V22.5713H17.7598V21.5961Z" fill="white"/>
<path d="M22.311 20.621H23.2862V23.5464H22.311V20.621Z" fill="white"/>
<path d="M18.7349 20.621H19.71V23.5464H18.7349V20.621Z" fill="white"/>
<path d="M21.0151 22.7468L20.7703 25.8462L17.0621 27.4206M17.0621 27.4206H13.7015M17.0621 27.4206L16.7875 30.6432L16.8734 33.6093M13.7015 27.4206L9.79297 25.6548V22.7468M13.7015 27.4206L14.0277 30.6432V33.6093M14.0277 33.6093H16.8734M14.0277 33.6093L13.9419 38.0666V40.9981M16.8734 33.6093V38.0666V40.9981" stroke="#9EB4C6" stroke-width="0.133333"/>
<circle cx="13.6939" cy="27.3528" r="0.266667" fill="#ACC1CE"/>
<circle cx="14.0572" cy="33.5919" r="0.266667" fill="#99B0C3"/>
<circle cx="13.9605" cy="38.0455" r="0.266667" fill="#99B0C3"/>
<circle cx="13.9522" cy="40.988" r="0.266667" fill="#95ACC1"/>
<circle cx="17.0474" cy="27.4064" r="0.266667" fill="#ACC1CE"/>
<circle cx="16.8897" cy="33.5919" r="0.266667" fill="#99B0C3"/>
<circle cx="16.8897" cy="38.0455" r="0.266667" fill="#99B0C3"/>
<circle cx="16.8814" cy="40.988" r="0.266667" fill="#8EA6BD"/>
<circle cx="20.7432" cy="25.8837" r="0.266667" fill="#ACC1CE"/>
<circle cx="9.82135" cy="25.6171" r="0.266667" fill="#ACC1CE"/>
<circle cx="9.82135" cy="22.7242" r="0.266667" fill="#B4C8D2"/>
<circle cx="21.0093" cy="22.7242" r="0.266667" fill="#B4C8D2"/>
</g>
<path d="M77.5335 17.4333C77.5059 17.8055 77.4577 18.3569 77.3888 19.0874C77.3199 19.8042 77.2372 20.6243 77.1407 21.5479C77.058 22.4576 76.9684 23.4156 76.8719 24.4218C76.7754 25.4281 76.6789 26.3929 76.5824 27.3165C76.4997 28.2262 76.4239 29.0532 76.355 29.7976C76.2861 30.5419 76.2378 31.1002 76.2103 31.4723C75.9208 34.4083 75.4246 36.9308 74.7216 39.0397C74.0324 41.1349 73.1226 42.851 71.9923 44.1881C70.8621 45.5251 69.5043 46.5038 67.9192 47.1241C66.3478 47.7581 64.5283 48.0752 62.4607 48.0752C61.041 48.0752 59.7039 47.8133 58.4496 47.2895C57.1952 46.7795 56.0994 46.0558 55.1621 45.1185C54.2248 44.1812 53.4805 43.0578 52.9291 41.7483C52.3915 40.425 52.1227 38.957 52.1227 37.3443C52.1227 37.1376 52.1365 36.7654 52.1641 36.2278C52.2054 35.6765 52.2537 35.0079 52.3088 34.2222C52.3777 33.4366 52.4467 32.5475 52.5156 31.555C52.5983 30.5488 52.681 29.4806 52.7637 28.3503L53.0118 24.918C53.0945 23.6637 53.1565 22.623 53.1979 21.796C53.2392 20.9552 53.2806 20.2797 53.3219 19.7697C53.3771 19.2597 53.4529 18.8876 53.5494 18.6532C53.6459 18.4189 53.7975 18.2673 54.0042 18.1984L61.0548 16.627C61.2339 16.5718 61.42 16.5443 61.613 16.5443C61.8336 16.5443 61.9783 16.6063 62.0472 16.7304C62.1299 16.8544 62.1713 17.0887 62.1713 17.4333L60.5999 33.726C60.5723 34.2085 60.5241 34.7322 60.4552 35.2974C60.3862 35.8625 60.3518 36.4415 60.3518 37.0342C60.3518 37.3926 60.3931 37.7854 60.4758 38.2127C60.5723 38.64 60.7377 39.0466 60.9721 39.4326C61.2064 39.8048 61.5234 40.1218 61.9231 40.3837C62.3367 40.6318 62.8673 40.7559 63.5152 40.7559C64.3009 40.7559 64.9349 40.5904 65.4174 40.2596C65.8998 39.915 66.2858 39.4671 66.5752 38.9157C66.8647 38.3505 67.0715 37.7165 67.1955 37.0135C67.3334 36.2967 67.4436 35.5662 67.5263 34.8218C67.5953 33.9535 67.678 32.9334 67.7744 31.7618C67.8709 30.5902 67.9674 29.3358 68.0639 27.9988L68.6635 19.7491C68.6911 19.5009 68.7049 19.2942 68.7049 19.1288C68.7187 18.9634 68.7393 18.8255 68.7669 18.7153C68.7945 18.605 68.8496 18.5223 68.9323 18.4671C69.0288 18.412 69.1735 18.3707 69.3665 18.3431L76.417 16.627C76.5962 16.5718 76.7823 16.5443 76.9753 16.5443C77.1682 16.5443 77.3061 16.6063 77.3888 16.7304C77.4853 16.8406 77.5335 17.075 77.5335 17.4333Z" fill="url(#paint1_linear_325_665)"/>
<path d="M40.5937 26.6275C41.0318 26.2187 41.5136 25.8865 42.0393 25.631C42.5649 25.3754 43.1818 25.2477 43.89 25.2477C44.5033 25.2477 45.0472 25.3535 45.5217 25.5652C45.9963 25.7697 46.3905 26.0617 46.7044 26.4413C47.0257 26.8137 47.2666 27.2627 47.4272 27.7883C47.5951 28.3067 47.6791 28.8798 47.6791 29.5077V36.6588H44.9742V29.5077C44.9742 28.8214 44.8172 28.2921 44.5033 27.9197C44.1893 27.5401 43.7111 27.3503 43.0687 27.3503C42.6014 27.3503 42.1634 27.4561 41.7545 27.6679C41.3457 27.8796 40.9587 28.168 40.5937 28.533V36.6588H37.8888V20.3854H40.5937V26.6275ZM57.9283 29.7486C57.9283 29.3981 57.8772 29.0696 57.775 28.763C57.6801 28.449 57.5341 28.1753 57.337 27.9416C57.1399 27.708 56.888 27.5255 56.5813 27.3941C56.282 27.2554 55.9316 27.186 55.53 27.186C54.7489 27.186 54.1319 27.4087 53.6793 27.854C53.2339 28.2994 52.9492 28.9309 52.8251 29.7486H57.9283ZM52.7703 31.3803C52.8142 31.9571 52.9164 32.4572 53.077 32.8806C53.2376 33.2968 53.4493 33.6435 53.7121 33.921C53.975 34.1911 54.2853 34.3955 54.643 34.5342C55.008 34.6656 55.4096 34.7314 55.8476 34.7314C56.2857 34.7314 56.6617 34.6802 56.9756 34.578C57.2968 34.4758 57.5742 34.3627 57.8079 34.2386C58.0488 34.1144 58.2569 34.0013 58.4321 33.8991C58.6146 33.7969 58.7898 33.7457 58.9577 33.7457C59.1841 33.7457 59.352 33.8297 59.4615 33.9976L60.239 34.9832C59.9397 35.3337 59.6039 35.6293 59.2315 35.8703C58.8592 36.1039 58.4686 36.2937 58.0597 36.4397C57.6582 36.5784 57.2457 36.677 56.8223 36.7354C56.4061 36.7938 56.0009 36.823 55.6067 36.823C54.8255 36.823 54.0991 36.6953 53.4274 36.4397C52.7557 36.1769 52.1717 35.7936 51.6752 35.2899C51.1788 34.7788 50.7882 34.1509 50.5035 33.4063C50.2187 32.6543 50.0764 31.7855 50.0764 30.7999C50.0764 30.0333 50.2005 29.3142 50.4487 28.6425C50.6969 27.9635 51.051 27.3758 51.511 26.8794C51.9782 26.3756 52.544 25.9777 53.2084 25.6857C53.8801 25.3937 54.6357 25.2477 55.4753 25.2477C56.1835 25.2477 56.8369 25.3608 57.4355 25.5871C58.0342 25.8135 58.5489 26.1457 58.9796 26.5837C59.4104 27.0144 59.7462 27.5474 59.9872 28.1826C60.2354 28.8104 60.3595 29.5296 60.3595 30.3399C60.3595 30.7488 60.3157 31.0262 60.2281 31.1722C60.1405 31.3109 59.9725 31.3803 59.7243 31.3803H52.7703ZM68.763 31.8622C67.9818 31.8987 67.3247 31.968 66.7917 32.0702C66.2588 32.1651 65.8317 32.2892 65.5105 32.4426C65.1892 32.5959 64.9593 32.7747 64.8205 32.9792C64.6818 33.1836 64.6125 33.4063 64.6125 33.6472C64.6125 34.1217 64.7512 34.4612 65.0286 34.6656C65.3133 34.8701 65.682 34.9723 66.1347 34.9723C66.6895 34.9723 67.1677 34.8737 67.5693 34.6766C67.9781 34.4722 68.376 34.1655 68.763 33.7567V31.8622ZM62.5646 26.9889C63.8568 25.8062 65.4119 25.2148 67.2298 25.2148C67.8869 25.2148 68.4746 25.3243 68.9929 25.5433C69.5113 25.7551 69.9493 26.0544 70.3071 26.4413C70.6648 26.821 70.9349 27.2773 71.1174 27.8102C71.3073 28.3432 71.4022 28.9272 71.4022 29.5624V36.6588H70.1756C69.9201 36.6588 69.723 36.6222 69.5843 36.5492C69.4456 36.4689 69.3361 36.312 69.2558 36.0783L69.0148 35.268C68.7301 35.5235 68.4527 35.7498 68.1825 35.9469C67.9124 36.1367 67.6313 36.2974 67.3393 36.4288C67.0473 36.5602 66.7333 36.6588 66.3975 36.7245C66.069 36.7975 65.7039 36.834 65.3024 36.834C64.8278 36.834 64.3898 36.7719 63.9883 36.6478C63.5867 36.5164 63.2399 36.3229 62.9479 36.0674C62.6559 35.8119 62.4295 35.4943 62.2689 35.1146C62.1083 34.735 62.028 34.2933 62.028 33.7896C62.028 33.5048 62.0755 33.2237 62.1704 32.9463C62.2653 32.6616 62.4186 32.3915 62.6303 32.1359C62.8493 31.8804 63.1304 31.6395 63.4735 31.4132C63.8167 31.1868 64.2365 30.9897 64.7329 30.8218C65.2367 30.6539 65.8207 30.5188 66.4851 30.4166C67.1495 30.3071 67.9088 30.2414 68.763 30.2195V29.5624C68.763 28.8104 68.6023 28.2556 68.2811 27.8978C67.9599 27.5328 67.4963 27.3503 66.8903 27.3503C66.4523 27.3503 66.0872 27.4014 65.7952 27.5036C65.5105 27.6058 65.2586 27.7226 65.0396 27.854C64.8205 27.9781 64.6198 28.0913 64.4372 28.1935C64.262 28.2957 64.0649 28.3468 63.8459 28.3468C63.6561 28.3468 63.4955 28.2994 63.364 28.2045C63.2326 28.1023 63.1268 27.9854 63.0465 27.854L62.5646 26.9889ZM77.1255 20.3854V36.6588H74.4206V20.3854H77.1255ZM84.0039 36.834C83.0256 36.834 82.2736 36.5602 81.7479 36.0126C81.2296 35.4578 80.9704 34.6948 80.9704 33.7238V27.4488H79.8205C79.6745 27.4488 79.5504 27.4014 79.4482 27.3065C79.346 27.2116 79.2949 27.0692 79.2949 26.8794V25.8062L81.1018 25.5105L81.6713 22.4442C81.7078 22.2982 81.7771 22.185 81.8793 22.1047C81.9816 22.0244 82.113 21.9842 82.2736 21.9842H83.6753V25.5214H86.6759V27.4488H83.6753V33.5377C83.6753 33.8881 83.7593 34.1619 83.9272 34.359C84.1024 34.5561 84.3397 34.6547 84.639 34.6547C84.8069 34.6547 84.9457 34.6364 85.0552 34.5999C85.172 34.5561 85.2705 34.5123 85.3509 34.4685C85.4385 34.4247 85.5151 34.3846 85.5808 34.3481C85.6465 34.3043 85.7122 34.2824 85.7779 34.2824C85.8583 34.2824 85.924 34.3043 85.9751 34.3481C86.0262 34.3846 86.0809 34.443 86.1393 34.5233L86.9497 35.8374C86.5555 36.166 86.1028 36.4142 85.5918 36.5821C85.0807 36.75 84.5514 36.834 84.0039 36.834ZM91.5507 26.6275C91.9888 26.2187 92.4706 25.8865 92.9963 25.631C93.5219 25.3754 94.1389 25.2477 94.847 25.2477C95.4603 25.2477 96.0042 25.3535 96.4788 25.5652C96.9533 25.7697 97.3475 26.0617 97.6615 26.4413C97.9827 26.8137 98.2236 27.2627 98.3842 27.7883C98.5522 28.3067 98.6361 28.8798 98.6361 29.5077V36.6588H95.9312V29.5077C95.9312 28.8214 95.7742 28.2921 95.4603 27.9197C95.1464 27.5401 94.6682 27.3503 94.0257 27.3503C93.5584 27.3503 93.1204 27.4561 92.7116 27.6679C92.3027 27.8796 91.9158 28.168 91.5507 28.533V36.6588H88.8458V20.3854H91.5507V26.6275Z" fill="#27262A"/>
<path d="M41.3551 45.5368C40.8864 45.5587 40.4922 45.6003 40.1724 45.6616C39.8526 45.7186 39.5964 45.793 39.4036 45.885C39.2109 45.977 39.0729 46.0843 38.9897 46.207C38.9064 46.3296 38.8648 46.4632 38.8648 46.6078C38.8648 46.8925 38.9481 47.0962 39.1145 47.2189C39.2854 47.3415 39.5066 47.4028 39.7782 47.4028C40.1111 47.4028 40.398 47.3437 40.6389 47.2254C40.8842 47.1028 41.123 46.9188 41.3551 46.6735V45.5368ZM37.6361 42.6128C38.4115 41.9032 39.3445 41.5484 40.4352 41.5484C40.8295 41.5484 41.1821 41.6141 41.4931 41.7455C41.8041 41.8725 42.0669 42.0521 42.2816 42.2843C42.4962 42.5121 42.6583 42.7858 42.7678 43.1056C42.8817 43.4254 42.9387 43.7758 42.9387 44.1569V48.4147H42.2027C42.0494 48.4147 41.9312 48.3928 41.8479 48.349C41.7647 48.3008 41.699 48.2067 41.6508 48.0665L41.5062 47.5803C41.3354 47.7336 41.169 47.8694 41.0069 47.9876C40.8448 48.1015 40.6762 48.1979 40.5009 48.2767C40.3257 48.3556 40.1374 48.4147 39.9359 48.4542C39.7387 48.498 39.5197 48.5199 39.2788 48.5199C38.9941 48.5199 38.7312 48.4826 38.4903 48.4082C38.2494 48.3293 38.0413 48.2132 37.8661 48.0599C37.6909 47.9066 37.5551 47.7161 37.4587 47.4883C37.3623 47.2605 37.3142 46.9955 37.3142 46.6932C37.3142 46.5224 37.3426 46.3537 37.3996 46.1873C37.4565 46.0164 37.5485 45.8544 37.6755 45.701C37.807 45.5477 37.9756 45.4032 38.1815 45.2674C38.3874 45.1316 38.6392 45.0133 38.9371 44.9126C39.2394 44.8118 39.5898 44.7308 39.9884 44.6694C40.387 44.6037 40.8426 44.5643 41.3551 44.5512V44.1569C41.3551 43.7057 41.2588 43.3728 41.066 43.1582C40.8733 42.9392 40.5951 42.8297 40.2315 42.8297C39.9687 42.8297 39.7497 42.8603 39.5745 42.9216C39.4036 42.983 39.2525 43.0531 39.1211 43.1319C38.9897 43.2064 38.8692 43.2743 38.7597 43.3356C38.6546 43.3969 38.5363 43.4276 38.4049 43.4276C38.291 43.4276 38.1946 43.3991 38.1158 43.3422C38.0369 43.2808 37.9734 43.2108 37.9252 43.1319L37.6361 42.6128ZM46.353 46.6669C46.5369 46.8903 46.7362 47.048 46.9509 47.14C47.1699 47.232 47.4065 47.278 47.6605 47.278C47.9058 47.278 48.127 47.232 48.3242 47.14C48.5213 47.048 48.6877 46.9079 48.8235 46.7195C48.9637 46.5311 49.071 46.2946 49.1455 46.0099C49.22 45.7208 49.2572 45.3813 49.2572 44.9914C49.2572 44.5972 49.2243 44.2643 49.1586 43.9927C49.0973 43.7167 49.0075 43.4933 48.8892 43.3225C48.771 43.1516 48.6264 43.0268 48.4556 42.9479C48.2891 42.8691 48.0986 42.8297 47.8839 42.8297C47.5466 42.8297 47.2597 42.9019 47.0232 43.0465C46.7866 43.1867 46.5632 43.386 46.353 43.6444V46.6669ZM46.2675 42.5931C46.5435 42.2821 46.8567 42.0302 47.2071 41.8375C47.5576 41.6447 47.9693 41.5484 48.4424 41.5484C48.8104 41.5484 49.1455 41.625 49.4477 41.7783C49.7544 41.9317 50.0172 42.1551 50.2362 42.4486C50.4596 42.7377 50.6305 43.0969 50.7487 43.5261C50.8714 43.951 50.9327 44.4395 50.9327 44.9914C50.9327 45.4952 50.8648 45.9617 50.729 46.391C50.5932 46.8202 50.3983 47.1926 50.1442 47.508C49.8946 47.8234 49.5901 48.0709 49.2309 48.2505C48.8761 48.4257 48.4775 48.5133 48.035 48.5133C47.6583 48.5133 47.3364 48.4563 47.0692 48.3425C46.8019 48.2242 46.5632 48.0621 46.353 47.8562V50.6159H44.73V41.6732H45.7222C45.9324 41.6732 46.0704 41.7718 46.1361 41.9689L46.2675 42.5931ZM54.0848 46.6669C54.2688 46.8903 54.4681 47.048 54.6827 47.14C54.9018 47.232 55.1383 47.278 55.3924 47.278C55.6377 47.278 55.8589 47.232 56.056 47.14C56.2531 47.048 56.4196 46.9079 56.5554 46.7195C56.6956 46.5311 56.8029 46.2946 56.8773 46.0099C56.9518 45.7208 56.989 45.3813 56.989 44.9914C56.989 44.5972 56.9562 44.2643 56.8905 43.9927C56.8292 43.7167 56.7394 43.4933 56.6211 43.3225C56.5028 43.1516 56.3583 43.0268 56.1874 42.9479C56.021 42.8691 55.8304 42.8297 55.6158 42.8297C55.2785 42.8297 54.9916 42.9019 54.755 43.0465C54.5185 43.1867 54.2951 43.386 54.0848 43.6444V46.6669ZM53.9994 42.5931C54.2754 42.2821 54.5886 42.0302 54.939 41.8375C55.2894 41.6447 55.7012 41.5484 56.1743 41.5484C56.5422 41.5484 56.8773 41.625 57.1796 41.7783C57.4862 41.9317 57.7491 42.1551 57.9681 42.4486C58.1915 42.7377 58.3623 43.0969 58.4806 43.5261C58.6032 43.951 58.6646 44.4395 58.6646 44.9914C58.6646 45.4952 58.5967 45.9617 58.4609 46.391C58.3251 46.8202 58.1302 47.1926 57.8761 47.508C57.6264 47.8234 57.322 48.0709 56.9628 48.2505C56.6079 48.4257 56.2093 48.5133 55.7669 48.5133C55.3902 48.5133 55.0682 48.4563 54.801 48.3425C54.5338 48.2242 54.2951 48.0621 54.0848 47.8562V50.6159H52.4618V41.6732H53.454C53.6643 41.6732 53.8023 41.7718 53.868 41.9689L53.9994 42.5931Z" fill="#27262A"/>
<path d="M87.9478 48V42.4806L87.363 42.3886C87.236 42.3624 87.133 42.3185 87.0542 42.2572C86.9797 42.1915 86.9425 42.0995 86.9425 41.9813V41.3176H87.9478V41.1008C87.9478 40.689 88.0157 40.3079 88.1515 39.9575C88.2873 39.6027 88.4932 39.296 88.7691 39.0376C89.0451 38.7791 89.3933 38.5776 89.8139 38.4331C90.2388 38.2841 90.7381 38.2097 91.312 38.2097C91.496 38.2097 91.6821 38.2206 91.8705 38.2425C92.0632 38.2601 92.2297 38.2907 92.3699 38.3345L92.3173 39.1756C92.3085 39.2763 92.2538 39.3376 92.153 39.3595C92.0523 39.3771 91.9274 39.3858 91.7785 39.3858C91.3536 39.3858 90.9966 39.4231 90.7075 39.4975C90.4227 39.572 90.1906 39.6837 90.011 39.8326C89.8358 39.9772 89.7087 40.1612 89.6299 40.3846C89.5554 40.6036 89.5182 40.8599 89.5182 41.1533V41.3176H93.6971V48H92.0742V42.4741H89.5707V48H87.9478ZM97.8707 48.1051C97.2837 48.1051 96.8325 47.9409 96.5171 47.6123C96.2061 47.2794 96.0506 46.8217 96.0506 46.2391V42.4741H95.3607C95.273 42.4741 95.1986 42.4456 95.1372 42.3886C95.0759 42.3317 95.0453 42.2463 95.0453 42.1324V41.4884L96.1294 41.311L96.4711 39.4712C96.493 39.3836 96.5346 39.3157 96.5959 39.2676C96.6573 39.2194 96.7361 39.1953 96.8325 39.1953H97.6735V41.3176H99.4739V42.4741H97.6735V46.1274C97.6735 46.3376 97.7239 46.5019 97.8247 46.6202C97.9298 46.7384 98.0722 46.7976 98.2518 46.7976C98.3525 46.7976 98.4357 46.7866 98.5014 46.7647C98.5715 46.7384 98.6307 46.7121 98.6788 46.6859C98.7314 46.6596 98.7774 46.6355 98.8168 46.6136C98.8563 46.5873 98.8957 46.5742 98.9351 46.5742C98.9833 46.5742 99.0227 46.5873 99.0534 46.6136C99.084 46.6355 99.1169 46.6705 99.1519 46.7187L99.6382 47.5072C99.4016 47.7043 99.13 47.8533 98.8234 47.954C98.5168 48.0548 98.1992 48.1051 97.8707 48.1051Z" fill="#93B5BC"/>
<defs>
<linearGradient id="paint0_linear_325_665" x1="15.4167" y1="15.0001" x2="15.4167" y2="45.8335" gradientUnits="userSpaceOnUse">
<stop stop-color="#C5D7DB"/>
<stop offset="1" stop-color="#85ABB3"/>
</linearGradient>
<linearGradient id="paint1_linear_325_665" x1="63.307" y1="0" x2="63.307" y2="60" gradientUnits="userSpaceOnUse">
<stop stop-color="#C5D7DB"/>
<stop offset="1" stop-color="#85ABB3"/>
</linearGradient>
<clipPath id="clip0_325_665">
<rect width="30.8334" height="30.8334" fill="white" transform="translate(0 15.0001)"/>
</clipPath>
</defs>
</svg>
